v -6.579770 1.420240 0.928334
v -7.680000 1.322450 -0.000000
v -5.406730 1.500620 1.751600
v -4.154040 1.566380 2.445440
v -2.823190 1.609600 2.974910
v -1.428800 1.626450 3.308170
v -6.571310 2.799060 0.918840
v -7.680000 2.634380 -0.000000
v -5.395440 2.947790 1.730340
v -4.145870 3.092440 2.412530
v -2.820150 3.202000 2.934890
v -1.428790 3.259590 3.264040
v -6.561120 4.118150 0.906945
v -7.680000 3.915610 -0.000000
v -5.381380 4.328460 1.702020
v -4.134910 4.558620 2.366020
v -2.815410 4.757980 2.873920
v -1.428440 4.886740 3.193340
v -6.554450 5.371130 0.897347
v -7.680000 5.156110 -0.000000
v -5.372090 5.626380 1.674660
v -4.127820 5.934380 2.314810
v -2.811780 6.238340 2.796140
v -1.427960 6.482350 3.088600
v -6.557640 6.565950 0.895419
v -7.680000 6.356720 -0.000000
v -5.375200 6.840680 1.655290
v -4.130710 7.200270 2.263850
v -2.812940 7.592110 2.701080
v -1.428720 8.004040 2.933120
v -6.557950 7.724670 0.885719
v -7.680000 7.528910 -0.000000
v -5.386620 8.005230 1.638670
v -4.146290 8.365270 2.223460
v -2.823170 8.824240 2.586870
v -1.431030 9.375220 2.718900
v -7.680000 8.693070 -0.000000
v -6.491750 8.906520 0.914237
v -5.272800 9.239670 1.633840
v -4.017190 9.699250 2.138980
v -2.795570 10.336600 2.376270
v -1.799360 11.271500 2.294040
v -1.439680 12.155500 2.028750
v -1.202260 13.129000 1.613850
v -1.079860 14.032300 1.104690
v -0.995827 14.837700 0.553456
v -0.937420 15.555000 -0.000000
v -7.680000 9.870680 -0.000000
v -6.459210 10.145200 0.912522
v -5.264490 10.607400 1.545940
v -4.130310 11.271000 1.884430
v -3.175990 12.276300 1.833940
v -2.677750 13.061300 1.582150
v -2.338820 13.961800 1.133270
v -2.119230 14.796200 0.586249
v -1.974900 15.555000 -0.000000
v -7.680000 11.082600 -0.000000
v -6.490930 11.487700 0.859740
v -5.390350 12.148900 1.321730
v -4.392260 13.158400 1.339770
v -3.851010 13.916900 1.082420
v -3.433260 14.764000 0.595331
v -3.163650 15.555000 -0.000000
v -7.680000 12.359100 -0.000000
v -6.571580 12.972800 0.710379
v -5.545870 13.996700 0.832922
v -4.981580 14.741800 0.545853
v -4.529630 15.555000 -0.000000
v -7.680000 13.752100 -0.000000
v -6.670540 14.819300 0.341076
v -6.105700 15.555000 -0.000000
v -7.680000 15.555000 -0.000000
v -6.582030 0.000000 0.926207
v -6.579770 -1.420240 0.928334
v -7.680000 -1.322450 -0.000000
v -7.680000 0.000000 0.000029
v -5.408300 0.000000 1.753850
v -5.406730 -1.500620 1.751600
v -4.154540 0.000000 2.453650
v -4.154040 -1.566380 2.445440
v -2.823050 0.000000 2.990240
v -2.823190 -1.609600 2.974910
v -1.429000 0.000000 3.331070
v -1.428800 -1.626450 3.308170
v -6.571310 -2.799060 0.918840
v -7.680000 -2.634380 -0.000000
v -5.395440 -2.947790 1.730340
v -4.145870 -3.092440 2.412530
v -2.820150 -3.202000 2.934890
v -1.428790 -3.259590 3.264040
v -6.561120 -4.118150 0.906945
v -7.680000 -3.915610 -0.000000
v -5.381380 -4.328460 1.702020
v -4.134910 -4.558620 2.366020
v -2.815410 -4.757980 2.873920
v -1.428440 -4.886740 3.193340
v -6.554450 -5.371130 0.897347
v -7.680000 -5.156110 -0.000000
v -5.372090 -5.626380 1.674660
v -4.127820 -5.934380 2.314810
v -2.811780 -6.238340 2.796140
v -1.427960 -6.482350 3.088600
v -6.557640 -6.565950 0.895419
v -7.680000 -6.356720 -0.000000
v -5.375200 -6.840680 1.655290
v -4.130710 -7.200270 2.263850
v -2.812940 -7.592110 2.701080
v -1.428720 -8.004040 2.933120
v -6.557950 -7.724670 0.885719
v -7.680000 -7.528910 -0.000000
v -5.386620 -8.005230 1.638670
v -4.146290 -8.365270 2.223460
v -2.823170 -8.824240 2.586870
v -1.431030 -9.375220 2.718900
v -7.680000 -8.693070 -0.000000
v -6.491750 -8.906520 0.914237
v -5.272800 -9.239670 1.633840
v -4.017190 -9.699250 2.138980
v -2.795570 -10.336600 2.376270
v -1.799360 -11.271500 2.294040
v -1.439680 -12.155500 2.028750
v -1.202260 -13.129000 1.613850
v -1.079860 -14.032300 1.104690
v -0.995827 -14.837700 0.553456
v -0.937420 -15.555000 -0.000000
v -7.680000 -9.870680 -0.000000
v -6.459210 -10.145200 0.912522
v -5.264490 -10.607400 1.545940
v -4.130310 -11.271000 1.884430
v -3.175990 -12.276300 1.833940
v -2.677750 -13.061300 1.582150
v -2.338820 -13.961800 1.133270
v -2.119230 -14.796200 0.586249
v -1.974900 -15.555000 -0.000000
v -7.680000 -11.082600 -0.000000
v -6.490930 -11.487700 0.859740
v -5.390350 -12.148900 1.321730
v -4.392260 -13.158400 1.339770
v -3.851010 -13.916900 1.082420
v -3.433260 -14.764000 0.595331
v -3.163650 -15.555000 -0.000000
v -7.680000 -12.359100 -0.000000
v -6.571580 -12.972800 0.710379
v -5.545870 -13.996700 0.832922
v -4.981580 -14.741800 0.545853
v -4.529630 -15.555000 -0.000000
v -7.680000 -13.752100 -0.000000
v -6.670540 -14.819300 0.341076
v -6.105700 -15.555000 -0.000000
v -7.680000 -15.555000 -0.000000
v -0.000000 1.635370 3.421680
v -0.000000 3.276470 3.373380
v -0.000000 4.927740 3.297020
v -0.000000 6.592490 3.173920
v -0.000000 8.269570 2.969750
v -0.000000 9.949240 2.654170
v -0.000000 11.099000 2.381940
v -0.000000 12.255000 2.018380
v -0.000000 13.255300 1.579740
v -0.000000 14.116900 1.068350
v -0.000000 14.868100 0.532250
v 0.000000 15.555000 0.000000
v 6.579770 1.420240 0.928334
v 7.680000 1.322450 0.000000
v 5.406730 1.500620 1.751600
v 4.154040 1.566380 2.445440
v 2.823190 1.609600 2.974910
v 1.428800 1.626450 3.308170
v 6.571310 2.799060 0.918840
v 7.680000 2.634380 0.000000
v 5.395440 2.947790 1.730340
v 4.145870 3.092440 2.412530
v 2.820150 3.202000 2.934890
v 1.428790 3.259590 3.264040
v 6.561120 4.118150 0.906945
v 7.680000 3.915610 0.000000
v 5.381380 4.328460 1.702020
v 4.134910 4.558620 2.366020
v 2.815410 4.757980 2.873920
v 1.428440 4.886740 3.193340
v 6.554450 5.371130 0.897347
v 7.680000 5.156110 0.000000
v 5.372090 5.626380 1.674660
v 4.127820 5.934380 2.314810
v 2.811780 6.238340 2.796140
v 1.427960 6.482350 3.088600
v 6.557640 6.565950 0.895419
v 7.680000 6.356720 0.000000
v 5.375200 6.840680 1.655290
v 4.130710 7.200270 2.263850
v 2.812940 7.592110 2.701080
v 1.428720 8.004040 2.933120
v 6.557950 7.724670 0.885719
v 7.680000 7.528910 0.000000
v 5.386620 8.005230 1.638670
v 4.146290 8.365270 2.223460
v 2.823170 8.824240 2.586870
v 1.431030 9.375220 2.718900
v 7.680000 8.693070 0.000000
v 6.491750 8.906520 0.914237
v 5.272800 9.239670 1.633840
v 4.017190 9.699250 2.138980
v 2.795570 10.336600 2.376270
v 1.799360 11.271500 2.294040
v 1.439680 12.155500 2.028750
v 1.202260 13.129000 1.613850
v 1.079860 14.032300 1.104690
v 0.995827 14.837700 0.553456
v 0.937420 15.555000 0.000000
v 7.680000 9.870680 0.000000
v 6.459210 10.145200 0.912522
v 5.264490 10.607400 1.545940
v 4.130310 11.271000 1.884430
v 3.175990 12.276300 1.833940
v 2.677750 13.061300 1.582150
v 2.338820 13.961800 1.133270
v 2.119230 14.796200 0.586249
v 1.974900 15.555000 0.000000
v 7.680000 11.082600 0.000000
v 6.490930 11.487700 0.859740
v 5.390350 12.148900 1.321730
v 4.392260 13.158400 1.339770
v 3.851010 13.916900 1.082420
v 3.433260 14.764000 0.595331
v 3.163650 15.555000 0.000000
v 7.680000 12.359100 0.000000
v 6.571580 12.972800 0.710379
v 5.545870 13.996700 0.832922
v 4.981580 14.741800 0.545853
v 4.529630 15.555000 0.000000
v 7.680000 13.752100 0.000000
v 6.670540 14.819300 0.341076
v 6.105700 15.555000 0.000000
v 7.680000 15.555000 0.000000
v -0.000000 -1.635370 3.421680
v -0.000000 0.000000 3.459740
v -0.000000 -3.276470 3.373380
v -0.000000 -4.927740 3.297020
v -0.000000 -6.592490 3.173920
v -0.000000 -8.269570 2.969750
v -0.000000 -9.949240 2.654170
v -0.000000 -11.099000 2.381940
v -0.000000 -12.255000 2.018380
v -0.000000 -13.255300 1.579740
v -0.000000 -14.116900 1.068350
v -0.000000 -14.868100 0.532250
v 0.000000 -15.555000 0.000000
v 6.582030 0.000000 0.926207
v 6.579770 -1.420240 0.928334
v 7.680000 -1.322450 0.000000
v 7.680000 0.000000 0.000029
v 5.408300 0.000000 1.753850
v 5.406730 -1.500620 1.751600
v 4.154540 0.000000 2.453650
v 4.154040 -1.566380 2.445440
v 2.823050 0.000000 2.990240
v 2.823190 -1.609600 2.974910
v 1.429000 0.000000 3.331070
v 1.428800 -1.626450 3.308170
v 6.571310 -2.799060 0.918840
v 7.680000 -2.634380 0.000000
v 5.395440 -2.947790 1.730340
v 4.145870 -3.092440 2.412530
v 2.820150 -3.202000 2.934890
v 1.428790 -3.259590 3.264040
v 6.561120 -4.118150 0.906945
v 7.680000 -3.915610 0.000000
v 5.381380 -4.328460 1.702020
v 4.134910 -4.558620 2.366020
v 2.815410 -4.757980 2.873920
v 1.428440 -4.886740 3.193340
v 6.554450 -5.371130 0.897347
v 7.680000 -5.156110 0.000000
v 5.372090 -5.626380 1.674660
v 4.127820 -5.934380 2.314810
v 2.811780 -6.238340 2.796140
v 1.427960 -6.482350 3.088600
v 6.557640 -6.565950 0.895419
v 7.680000 -6.356720 0.000000
v 5.375200 -6.840680 1.655290
v 4.130710 -7.200270 2.263850
v 2.812940 -7.592110 2.701080
v 1.428720 -8.004040 2.933120
v 6.557950 -7.724670 0.885719
v 7.680000 -7.528910 0.000000
v 5.386620 -8.005230 1.638670
v 4.146290 -8.365270 2.223460
v 2.823170 -8.824240 2.586870
v 1.431030 -9.375220 2.718900
v 7.680000 -8.693070 0.000000
v 6.491750 -8.906520 0.914237
v 5.272800 -9.239670 1.633840
v 4.017190 -9.699250 2.138980
v 2.795570 -10.336600 2.376270
v 1.799360 -11.271500 2.294040
v 1.439680 -12.155500 2.028750
v 1.202260 -13.129000 1.613850
v 1.079860 -14.032300 1.104690
v 0.995827 -14.837700 0.553456
v 0.937420 -15.555000 0.000000
v 7.680000 -9.870680 0.000000
v 6.459210 -10.145200 0.912522
v 5.264490 -10.607400 1.545940
v 4.130310 -11.271000 1.884430
v 3.175990 -12.276300 1.833940
v 2.677750 -13.061300 1.582150
v 2.338820 -13.961800 1.133270
v 2.119230 -14.796200 0.586249
v 1.974900 -15.555000 0.000000
v 7.680000 -11.082600 0.000000
v 6.490930 -11.487700 0.859740
v 5.390350 -12.148900 1.321730
v 4.392260 -13.158400 1.339770
v 3.851010 -13.916900 1.082420
v 3.433260 -14.764000 0.595331
v 3.163650 -15.555000 0.000000
v 7.680000 -12.359100 0.000000
v 6.571580 -12.972800 0.710379
v 5.545870 -13.996700 0.832922
v 4.981580 -14.741800 0.545853
v 4.529630 -15.555000 0.000000
v 7.680000 -13.752100 0.000000
v 6.670540 -14.819300 0.341076
v 6.105700 -15.555000 0.000000
v 7.680000 -15.555000 0.000000
vn -0.6449 -0.0001 0.7643
vn -0.6448 0.0000 0.7644
vn -0.5745 0.0018 0.8185
vn -0.5763 -0.0003 0.8173
vn -0.4847 0.0047 0.8747
vn -0.4874 0.0018 0.8732
vn -0.3699 0.0088 0.9290
vn -0.3738 0.0050 0.9275
vn -0.2326 0.0137 0.9725
vn -0.2375 0.0092 0.9713
vn -0.0793 0.0232 0.9966
vn -0.0897 0.0140 0.9959
vn -0.6389 0.0092 0.7692
vn -0.6449 0.0000 0.7643
vn -0.5693 0.0165 0.8219
vn -0.5749 0.0092 0.8182
vn -0.4810 0.0215 0.8765
vn -0.4851 0.0166 0.8743
vn -0.3682 0.0241 0.9294
vn -0.3702 0.0220 0.9287
vn -0.2312 0.0263 0.9726
vn -0.2327 0.0249 0.9722
vn -0.0766 0.0293 0.9966
vn -0.0793 0.0269 0.9965
vn -0.6309 0.0119 0.7757
vn -0.6381 0.0000 0.7699
vn -0.5615 0.0227 0.8272
vn -0.5690 0.0118 0.8223
vn -0.4744 0.0315 0.8797
vn -0.4811 0.0229 0.8764
vn -0.3639 0.0376 0.9307
vn -0.3687 0.0322 0.9290
vn -0.2280 0.0423 0.9728
vn -0.2316 0.0388 0.9720
vn -0.0736 0.0461 0.9962
vn -0.0767 0.0433 0.9961
vn -0.6244 0.0093 0.7810
vn -0.6297 0.0000 0.7768
vn -0.5525 0.0215 0.8333
vn -0.5600 0.0093 0.8284
vn -0.4641 0.0353 0.8851
vn -0.4732 0.0220 0.8807
vn -0.3532 0.0500 0.9342
vn -0.3638 0.0365 0.9308
vn -0.2171 0.0640 0.9740
vn -0.2287 0.0516 0.9721
vn -0.0651 0.0736 0.9952
vn -0.0741 0.0653 0.9951
vn -0.6236 -0.0004 0.7817
vn -0.6234 0.0000 0.7819
vn -0.5426 0.0120 0.8399
vn -0.5493 -0.0001 0.8356
vn -0.4472 0.0350 0.8938
vn -0.4600 0.0130 0.8878
vn -0.3318 0.0658 0.9411
vn -0.3508 0.0369 0.9357
vn -0.1933 0.0996 0.9761
vn -0.2178 0.0682 0.9736
vn -0.0479 0.1207 0.9915
vn -0.0671 0.1014 0.9926
vn -0.6203 0.0064 0.7844
vn -0.6236 0.0000 0.7817
vn -0.5419 0.0067 0.8404
vn -0.5417 0.0069 0.8405
vn -0.4324 0.0255 0.9013
vn -0.4413 0.0085 0.8973
vn -0.2915 0.0859 0.9527
vn -0.3224 0.0285 0.9462
vn -0.1529 0.1523 0.9764
vn -0.1904 0.0890 0.9777
vn -0.0296 0.1846 0.9824
vn -0.0539 0.1540 0.9866
vn -0.6196 0.0000 0.7849
vn -0.5424 0.0101 0.8400
vn -0.6114 0.0152 0.7912
vn -0.4364 0.0438 0.8987
vn -0.5180 0.0511 0.8538
vn -0.2923 0.0886 0.9522
vn -0.4017 0.0965 0.9107
vn -0.1479 0.1391 0.9792
vn -0.2577 0.1379 0.9563
vn -0.0404 0.2110 0.9767
vn -0.1053 0.1979 0.9746
vn -0.0185 0.2943 0.9555
vn -0.0208 0.3963 0.9179
vn -0.0162 0.4015 0.9157
vn -0.0272 0.4936 0.8692
vn -0.0110 0.5104 0.8599
vn -0.0166 0.5659 0.8243
vn -0.0004 0.5809 0.8140
vn -0.0018 0.6110 0.7917
vn 0.0032 0.5646 0.8254
vn -0.0000 0.6125 0.7905
vn -0.6098 0.0000 0.7926
vn -0.5113 0.0146 0.8593
vn -0.6011 0.0169 0.7990
vn -0.3918 0.0614 0.9180
vn -0.4853 0.0590 0.8723
vn -0.2570 0.1364 0.9567
vn -0.3502 0.1251 0.9283
vn -0.1458 0.2398 0.9598
vn -0.1911 0.2294 0.9544
vn -0.0803 0.3503 0.9332
vn -0.1099 0.3661 0.9240
vn -0.0401 0.4578 0.8881
vn -0.0839 0.3176 0.9445
vn -0.0119 0.5504 0.8348
vn -0.0380 0.3996 0.9159
vn 0.0005 0.6113 0.7914
vn -0.0078 0.4918 0.8707
vn 0.0000 0.6109 0.7917
vn -0.5987 0.0000 0.8010
vn -0.4753 0.0233 0.8795
vn -0.5898 0.0178 0.8073
vn -0.3417 0.1079 0.9336
vn -0.4333 0.0950 0.8962
vn -0.2075 0.2445 0.9472
vn -0.2549 0.2353 0.9379
vn -0.1075 0.3874 0.9156
vn -0.0435 0.4588 0.8875
vn -0.0441 0.5142 0.8565
vn -0.0077 0.5497 0.8353
vn -0.0093 0.6033 0.7974
vn -0.1159 0.3923 0.9125
vn -0.0000 0.6114 0.7913
vn -0.5859 0.0000 0.8104
vn -0.4207 0.0681 0.9046
vn -0.5594 0.0528 0.8272
vn -0.2478 0.2282 0.9415
vn -0.3257 0.2161 0.9205
vn -0.1117 0.4298 0.8960
vn -0.0348 0.5110 0.8589
vn -0.0344 0.5701 0.8208
vn -0.0905 0.4170 0.9044
vn -0.0000 0.6013 0.7990
vn -0.5396 0.0000 0.8419
vn -0.2855 0.1732 0.9426
vn -0.4560 0.1510 0.8771
vn -0.0847 0.4719 0.8776
vn -0.0000 0.5573 0.8303
vn -0.3201 0.0000 0.9474
vn -0.0000 0.4206 0.9072
vn -0.0254 0.2303 0.9728
vn -0.0139 0.3000 0.9538
vn -0.6449 0.0001 0.7643
vn -0.5745 -0.0018 0.8185
vn -0.5763 0.0003 0.8173
vn -0.4847 -0.0047 0.8747
vn -0.4874 -0.0018 0.8732
vn -0.3699 -0.0088 0.9290
vn -0.3738 -0.0050 0.9275
vn -0.2326 -0.0137 0.9725
vn -0.2375 -0.0092 0.9713
vn -0.0793 -0.0232 0.9966
vn -0.0897 -0.0140 0.9959
vn -0.6389 -0.0092 0.7692
vn -0.5693 -0.0165 0.8219
vn -0.5749 -0.0092 0.8182
vn -0.4810 -0.0215 0.8765
vn -0.4851 -0.0166 0.8743
vn -0.3682 -0.0241 0.9294
vn -0.3702 -0.0220 0.9287
vn -0.2312 -0.0263 0.9726
vn -0.2327 -0.0249 0.9722
vn -0.0766 -0.0293 0.9966
vn -0.0793 -0.0269 0.9965
vn -0.6309 -0.0119 0.7757
vn -0.5615 -0.0227 0.8272
vn -0.5690 -0.0118 0.8223
vn -0.4744 -0.0315 0.8797
vn -0.4811 -0.0229 0.8764
vn -0.3639 -0.0376 0.9307
vn -0.3687 -0.0322 0.9290
vn -0.2280 -0.0423 0.9728
vn -0.2316 -0.0388 0.9720
vn -0.0736 -0.0461 0.9962
vn -0.0767 -0.0433 0.9961
vn -0.6244 -0.0093 0.7810
vn -0.5525 -0.0215 0.8333
vn -0.5600 -0.0093 0.8284
vn -0.4641 -0.0353 0.8851
vn -0.4732 -0.0220 0.8807
vn -0.3532 -0.0500 0.9342
vn -0.3638 -0.0365 0.9308
vn -0.2171 -0.0640 0.9740
vn -0.2287 -0.0516 0.9721
vn -0.0651 -0.0736 0.9952
vn -0.0741 -0.0653 0.9951
vn -0.6236 0.0004 0.7817
vn -0.5426 -0.0120 0.8399
vn -0.5493 0.0001 0.8356
vn -0.4472 -0.0350 0.8938
vn -0.4600 -0.0130 0.8878
vn -0.3318 -0.0658 0.9411
vn -0.3508 -0.0369 0.9357
vn -0.1933 -0.0996 0.9761
vn -0.2178 -0.0682 0.9736
vn -0.0479 -0.1207 0.9915
vn -0.0671 -0.1014 0.9926
vn -0.6203 -0.0064 0.7844
vn -0.5419 -0.0067 0.8404
vn -0.5417 -0.0069 0.8405
vn -0.4324 -0.0255 0.9013
vn -0.4413 -0.0085 0.8973
vn -0.2915 -0.0859 0.9527
vn -0.3224 -0.0285 0.9462
vn -0.1529 -0.1523 0.9764
vn -0.1904 -0.0890 0.9777
vn -0.0296 -0.1846 0.9824
vn -0.0539 -0.1540 0.9866
vn -0.5424 -0.0101 0.8400
vn -0.6114 -0.0152 0.7912
vn -0.4364 -0.0438 0.8987
vn -0.5180 -0.0511 0.8538
vn -0.2923 -0.0886 0.9522
vn -0.4017 -0.0965 0.9107
vn -0.1479 -0.1391 0.9792
vn -0.2577 -0.1379 0.9563
vn -0.0404 -0.2110 0.9767
vn -0.1053 -0.1979 0.9746
vn -0.0185 -0.2943 0.9555
vn -0.0208 -0.3963 0.9179
vn -0.0162 -0.4015 0.9157
vn -0.0272 -0.4936 0.8692
vn -0.0110 -0.5104 0.8599
vn -0.0166 -0.5659 0.8243
vn -0.0004 -0.5809 0.8140
vn -0.0018 -0.6110 0.7917
vn 0.0032 -0.5646 0.8254
vn -0.0000 -0.6125 0.7905
vn -0.5113 -0.0146 0.8593
vn -0.6011 -0.0169 0.7990
vn -0.3918 -0.0614 0.9180
vn -0.4853 -0.0590 0.8723
vn -0.2570 -0.1364 0.9567
vn -0.3502 -0.1251 0.9283
vn -0.1458 -0.2398 0.9598
vn -0.1911 -0.2294 0.9544
vn -0.0803 -0.3503 0.9332
vn -0.1099 -0.3661 0.9240
vn -0.0401 -0.4578 0.8881
vn -0.0839 -0.3176 0.9445
vn -0.0119 -0.5504 0.8348
vn -0.0380 -0.3996 0.9159
vn 0.0005 -0.6113 0.7914
vn -0.0078 -0.4918 0.8707
vn 0.0000 -0.6109 0.7917
vn -0.4753 -0.0233 0.8795
vn -0.5898 -0.0178 0.8073
vn -0.3417 -0.1079 0.9336
vn -0.4333 -0.0950 0.8962
vn -0.2075 -0.2445 0.9472
vn -0.2549 -0.2353 0.9379
vn -0.1075 -0.3874 0.9156
vn -0.0435 -0.4588 0.8875
vn -0.0441 -0.5142 0.8565
vn -0.0077 -0.5497 0.8353
vn -0.0093 -0.6033 0.7974
vn -0.1159 -0.3923 0.9125
vn -0.0000 -0.6114 0.7913
vn -0.4207 -0.0681 0.9046
vn -0.5594 -0.0528 0.8272
vn -0.2478 -0.2282 0.9415
vn -0.3257 -0.2161 0.9205
vn -0.1117 -0.4298 0.8960
vn -0.0348 -0.5110 0.8589
vn -0.0344 -0.5701 0.8208
vn -0.0905 -0.4170 0.9044
vn -0.0000 -0.6013 0.7990
vn -0.2855 -0.1732 0.9426
vn -0.4560 -0.1510 0.8771
vn -0.0847 -0.4719 0.8776
vn -0.0000 -0.5573 0.8303
vn -0.0000 -0.4206 0.9072
vn -0.0254 -0.2303 0.9728
vn -0.0139 -0.3000 0.9538
vn 0.6449 -0.0001 0.7643
vn 0.6448 0.0000 0.7644
vn 0.5745 0.0018 0.8185
vn 0.5763 -0.0003 0.8173
vn 0.4847 0.0047 0.8747
vn 0.4874 0.0018 0.8732
vn 0.3699 0.0088 0.9290
vn 0.3738 0.0050 0.9275
vn 0.2326 0.0137 0.9725
vn 0.2375 0.0092 0.9713
vn 0.0793 0.0232 0.9966
vn 0.0897 0.0140 0.9959
vn 0.6389 0.0092 0.7692
vn 0.6449 0.0000 0.7643
vn 0.5693 0.0165 0.8219
vn 0.5749 0.0092 0.8182
vn 0.4810 0.0215 0.8765
vn 0.4851 0.0166 0.8743
vn 0.3682 0.0241 0.9294
vn 0.3702 0.0220 0.9287
vn 0.2312 0.0263 0.9726
vn 0.2327 0.0249 0.9722
vn 0.0766 0.0293 0.9966
vn 0.0793 0.0269 0.9965
vn 0.6309 0.0119 0.7757
vn 0.6381 0.0000 0.7699
vn 0.5615 0.0227 0.8272
vn 0.5690 0.0118 0.8223
vn 0.4744 0.0315 0.8797
vn 0.4811 0.0229 0.8764
vn 0.3639 0.0376 0.9307
vn 0.3687 0.0322 0.9290
vn 0.2280 0.0423 0.9728
vn 0.2316 0.0388 0.9720
vn 0.0736 0.0461 0.9962
vn 0.0767 0.0433 0.9961
vn 0.6244 0.0093 0.7810
vn 0.6297 0.0000 0.7768
vn 0.5525 0.0215 0.8333
vn 0.5600 0.0093 0.8284
vn 0.4641 0.0353 0.8851
vn 0.4732 0.0220 0.8807
vn 0.3532 0.0500 0.9342
vn 0.3638 0.0365 0.9308
vn 0.2171 0.0640 0.9740
vn 0.2287 0.0516 0.9721
vn 0.0651 0.0736 0.9952
vn 0.0741 0.0653 0.9951
vn 0.6236 -0.0004 0.7817
vn 0.6234 0.0000 0.7819
vn 0.5426 0.0120 0.8399
vn 0.5493 -0.0001 0.8356
vn 0.4472 0.0350 0.8938
vn 0.4600 0.0130 0.8878
vn 0.3318 0.0658 0.9411
vn 0.3508 0.0369 0.9357
vn 0.1933 0.0996 0.9761
vn 0.2178 0.0682 0.9736
vn 0.0479 0.1207 0.9915
vn 0.0671 0.1014 0.9926
vn 0.6203 0.0064 0.7844
vn 0.6236 0.0000 0.7817
vn 0.5419 0.0067 0.8404
vn 0.5417 0.0069 0.8405
vn 0.4324 0.0255 0.9013
vn 0.4413 0.0085 0.8973
vn 0.2915 0.0859 0.9527
vn 0.3224 0.0285 0.9462
vn 0.1529 0.1523 0.9764
vn 0.1904 0.0890 0.9777
vn 0.0296 0.1846 0.9824
vn 0.0539 0.1540 0.9866
vn 0.6196 0.0000 0.7849
vn 0.5424 0.0101 0.8400
vn 0.6114 0.0152 0.7912
vn 0.4364 0.0438 0.8987
vn 0.5180 0.0511 0.8538
vn 0.2923 0.0886 0.9522
vn 0.4017 0.0965 0.9107
vn 0.1479 0.1391 0.9792
vn 0.2577 0.1379 0.9563
vn 0.0404 0.2110 0.9767
vn 0.1053 0.1979 0.9746
vn 0.0185 0.2943 0.9555
vn 0.0208 0.3963 0.9179
vn 0.0162 0.4015 0.9157
vn 0.0272 0.4936 0.8692
vn 0.0110 0.5104 0.8599
vn 0.0166 0.5659 0.8243
vn 0.0004 0.5809 0.8140
vn 0.0018 0.6110 0.7917
vn -0.0032 0.5646 0.8254
vn 0.6098 0.0000 0.7926
vn 0.5113 0.0146 0.8593
vn 0.6011 0.0169 0.7990
vn 0.3918 0.0614 0.9180
vn 0.4853 0.0590 0.8723
vn 0.2570 0.1364 0.9567
vn 0.3502 0.1251 0.9283
vn 0.1458 0.2398 0.9598
vn 0.1911 0.2294 0.9544
vn 0.0803 0.3503 0.9332
vn 0.1099 0.3661 0.9240
vn 0.0401 0.4578 0.8881
vn 0.0839 0.3176 0.9445
vn 0.0119 0.5504 0.8348
vn 0.0380 0.3996 0.9159
vn -0.0005 0.6113 0.7914
vn 0.0078 0.4918 0.8707
vn 0.5987 0.0000 0.8010
vn 0.4753 0.0233 0.8795
vn 0.5898 0.0178 0.8073
vn 0.3417 0.1079 0.9336
vn 0.4333 0.0950 0.8962
vn 0.2075 0.2445 0.9472
vn 0.2549 0.2353 0.9379
vn 0.1075 0.3874 0.9156
vn 0.0435 0.4588 0.8875
vn 0.0441 0.5142 0.8565
vn 0.0077 0.5497 0.8353
vn 0.0093 0.6033 0.7974
vn 0.1159 0.3923 0.9125
vn 0.5859 0.0000 0.8104
vn 0.4207 0.0681 0.9046
vn 0.5594 0.0528 0.8272
vn 0.2478 0.2282 0.9415
vn 0.3257 0.2161 0.9205
vn 0.1117 0.4298 0.8960
vn 0.0348 0.5110 0.8589
vn 0.0344 0.5701 0.8208
vn 0.0905 0.4170 0.9044
vn 0.5396 0.0000 0.8419
vn 0.2855 0.1732 0.9426
vn 0.4560 0.1510 0.8771
vn 0.0847 0.4719 0.8776
vn 0.3201 0.0000 0.9474
vn 0.0254 0.2303 0.9728
vn 0.0139 0.3000 0.9538
vn 0.6449 0.0001 0.7643
vn 0.5745 -0.0018 0.8185
vn 0.5763 0.0003 0.8173
vn 0.4847 -0.0047 0.8747
vn 0.4874 -0.0018 0.8732
vn 0.3699 -0.0088 0.9290
vn 0.3738 -0.0050 0.9275
vn 0.2326 -0.0137 0.9725
vn 0.2375 -0.0092 0.9713
vn 0.0793 -0.0232 0.9966
vn 0.0897 -0.0140 0.9959
vn 0.6389 -0.0092 0.7692
vn 0.5693 -0.0165 0.8219
vn 0.5749 -0.0092 0.8182
vn 0.4810 -0.0215 0.8765
vn 0.4851 -0.0166 0.8743
vn 0.3682 -0.0241 0.9294
vn 0.3702 -0.0220 0.9287
vn 0.2312 -0.0263 0.9726
vn 0.2327 -0.0249 0.9722
vn 0.0766 -0.0293 0.9966
vn 0.0793 -0.0269 0.9965
vn 0.6309 -0.0119 0.7757
vn 0.5615 -0.0227 0.8272
vn 0.5690 -0.0118 0.8223
vn 0.4744 -0.0315 0.8797
vn 0.4811 -0.0229 0.8764
vn 0.3639 -0.0376 0.9307
vn 0.3687 -0.0322 0.9290
vn 0.2280 -0.0423 0.9728
vn 0.2316 -0.0388 0.9720
vn 0.0736 -0.0461 0.9962
vn 0.0767 -0.0433 0.9961
vn 0.6244 -0.0093 0.7810
vn 0.5525 -0.0215 0.8333
vn 0.5600 -0.0093 0.8284
vn 0.4641 -0.0353 0.8851
vn 0.4732 -0.0220 0.8807
vn 0.3532 -0.0500 0.9342
vn 0.3638 -0.0365 0.9308
vn 0.2171 -0.0640 0.9740
vn 0.2287 -0.0516 0.9721
vn 0.0651 -0.0736 0.9952
vn 0.0741 -0.0653 0.9951
vn 0.6236 0.0004 0.7817
vn 0.5426 -0.0120 0.8399
vn 0.5493 0.0001 0.8356
vn 0.4472 -0.0350 0.8938
vn 0.4600 -0.0130 0.8878
vn 0.3318 -0.0658 0.9411
vn 0.3508 -0.0369 0.9357
vn 0.1933 -0.0996 0.9761
vn 0.2178 -0.0682 0.9736
vn 0.0479 -0.1207 0.9915
vn 0.0671 -0.1014 0.9926
vn 0.6203 -0.0064 0.7844
vn 0.5419 -0.0067 0.8404
vn 0.5417 -0.0069 0.8405
vn 0.4324 -0.0255 0.9013
vn 0.4413 -0.0085 0.8973
vn 0.2915 -0.0859 0.9527
vn 0.3224 -0.0285 0.9462
vn 0.1529 -0.1523 0.9764
vn 0.1904 -0.0890 0.9777
vn 0.0296 -0.1846 0.9824
vn 0.0539 -0.1540 0.9866
vn 0.5424 -0.0101 0.8400
vn 0.6114 -0.0152 0.7912
vn 0.4364 -0.0438 0.8987
vn 0.5180 -0.0511 0.8538
vn 0.2923 -0.0886 0.9522
vn 0.4017 -0.0965 0.9107
vn 0.1479 -0.1391 0.9792
vn 0.2577 -0.1379 0.9563
vn 0.0404 -0.2110 0.9767
vn 0.1053 -0.1979 0.9746
vn 0.0185 -0.2943 0.9555
vn 0.0208 -0.3963 0.9179
vn 0.0162 -0.4015 0.9157
vn 0.0272 -0.4936 0.8692
vn 0.0110 -0.5104 0.8599
vn 0.0166 -0.5659 0.8243
vn 0.0004 -0.5809 0.8140
vn 0.0018 -0.6110 0.7917
vn -0.0032 -0.5646 0.8254
vn 0.5113 -0.0146 0.8593
vn 0.6011 -0.0169 0.7990
vn 0.3918 -0.0614 0.9180
vn 0.4853 -0.0590 0.8723
vn 0.2570 -0.1364 0.9567
vn 0.3502 -0.1251 0.9283
vn 0.1458 -0.2398 0.9598
vn 0.1911 -0.2294 0.9544
vn 0.0803 -0.3503 0.9332
vn 0.1099 -0.3661 0.9240
vn 0.0401 -0.4578 0.8881
vn 0.0839 -0.3176 0.9445
vn 0.0119 -0.5504 0.8348
vn 0.0380 -0.3996 0.9159
vn -0.0005 -0.6113 0.7914
vn 0.0078 -0.4918 0.8707
vn 0.4753 -0.0233 0.8795
vn 0.5898 -0.0178 0.8073
vn 0.3417 -0.1079 0.9336
vn 0.4333 -0.0950 0.8962
vn 0.2075 -0.2445 0.9472
vn 0.2549 -0.2353 0.9379
vn 0.1075 -0.3874 0.9156
vn 0.0435 -0.4588 0.8875
vn 0.0441 -0.5142 0.8565
vn 0.0077 -0.5497 0.8353
vn 0.0093 -0.6033 0.7974
vn 0.1159 -0.3923 0.9125
vn 0.4207 -0.0681 0.9046
vn 0.5594 -0.0528 0.8272
vn 0.2478 -0.2282 0.9415
vn 0.3257 -0.2161 0.9205
vn 0.1117 -0.4298 0.8960
vn 0.0348 -0.5110 0.8589
vn 0.0344 -0.5701 0.8208
vn 0.0905 -0.4170 0.9044
vn 0.2855 -0.1732 0.9426
vn 0.4560 -0.1510 0.8771
vn 0.0847 -0.4719 0.8776
vn 0.0254 -0.2303 0.9728
vn 0.0139 -0.3000 0.9538
usemtl Default_OBJ.001
s off
f 73//1 1//1 2//1
f 73//2 2//2 76//2
f 77//3 3//3 1//3
f 77//4 1//4 73//4
f 79//5 4//5 3//5
f 79//6 3//6 77//6
f 81//7 5//7 4//7
f 81//8 4//8 79//8
f 83//9 6//9 5//9
f 83//10 5//10 81//10
f 236//11 151//11 6//11
f 236//12 6//12 83//12
f 1//13 7//13 8//13
f 1//14 8//14 2//14
f 3//15 9//15 7//15
f 3//16 7//16 1//16
f 4//17 10//17 9//17
f 4//18 9//18 3//18
f 5//19 11//19 10//19
f 5//20 10//20 4//20
f 6//21 12//21 11//21
f 6//22 11//22 5//22
f 151//23 152//23 12//23
f 151//24 12//24 6//24
f 7//25 13//25 14//25
f 7//26 14//26 8//26
f 9//27 15//27 13//27
f 9//28 13//28 7//28
f 10//29 16//29 15//29
f 10//30 15//30 9//30
f 11//31 17//31 16//31
f 11//32 16//32 10//32
f 12//33 18//33 17//33
f 12//34 17//34 11//34
f 152//35 153//35 18//35
f 152//36 18//36 12//36
f 13//37 19//37 20//37
f 13//38 20//38 14//38
f 15//39 21//39 19//39
f 15//40 19//40 13//40
f 16//41 22//41 21//41
f 16//42 21//42 15//42
f 17//43 23//43 22//43
f 17//44 22//44 16//44
f 18//45 24//45 23//45
f 18//46 23//46 17//46
f 153//47 154//47 24//47
f 153//48 24//48 18//48
f 19//49 25//49 26//49
f 19//50 26//50 20//50
f 21//51 27//51 25//51
f 21//52 25//52 19//52
f 22//53 28//53 27//53
f 22//54 27//54 21//54
f 23//55 29//55 28//55
f 23//56 28//56 22//56
f 24//57 30//57 29//57
f 24//58 29//58 23//58
f 154//59 155//59 30//59
f 154//60 30//60 24//60
f 25//61 31//61 32//61
f 25//62 32//62 26//62
f 27//63 33//63 31//63
f 27//64 31//64 25//64
f 28//65 34//65 33//65
f 28//66 33//66 27//66
f 29//67 35//67 34//67
f 29//68 34//68 28//68
f 30//69 36//69 35//69
f 30//70 35//70 29//70
f 155//71 156//71 36//71
f 155//72 36//72 30//72
f 32//73 31//73 37//73
f 31//74 33//74 38//74
f 31//75 38//75 37//75
f 33//76 34//76 39//76
f 33//77 39//77 38//77
f 34//78 35//78 40//78
f 34//79 40//79 39//79
f 35//80 36//80 41//80
f 35//81 41//81 40//81
f 36//82 156//82 42//82
f 36//83 42//83 41//83
f 43//84 42//84 157//84
f 44//85 43//85 158//85
f 44//86 158//86 159//86
f 45//87 44//87 159//87
f 45//88 159//88 160//88
f 46//89 45//89 160//89
f 46//90 160//90 161//90
f 47//91 46//91 161//91
f 55//92 45//92 46//92
f 161//93 162//93 47//93
f 37//94 38//94 48//94
f 38//95 39//95 49//95
f 38//96 49//96 48//96
f 39//97 40//97 50//97
f 39//98 50//98 49//98
f 40//99 41//99 51//99
f 40//100 51//100 50//100
f 41//101 42//101 52//101
f 41//102 52//102 51//102
f 53//103 52//103 43//103
f 60//104 52//104 53//104
f 54//105 53//105 44//105
f 52//106 42//106 43//106
f 55//107 54//107 45//107
f 53//108 43//108 44//108
f 56//109 55//109 46//109
f 54//110 44//110 45//110
f 56//111 46//111 47//111
f 48//112 49//112 57//112
f 49//113 50//113 58//113
f 49//114 58//114 57//114
f 50//115 51//115 59//115
f 50//116 59//116 58//116
f 51//117 52//117 60//117
f 51//118 60//118 59//118
f 61//119 60//119 53//119
f 61//120 53//120 54//120
f 62//121 61//121 54//121
f 62//122 54//122 55//122
f 63//123 62//123 55//123
f 66//124 60//124 61//124
f 55//125 56//125 63//125
f 64//126 57//126 58//126
f 58//127 59//127 65//127
f 58//128 65//128 64//128
f 59//129 60//129 66//129
f 59//130 66//130 65//130
f 67//131 66//131 61//131
f 67//132 61//132 62//132
f 68//133 67//133 62//133
f 70//134 66//134 67//134
f 68//135 62//135 63//135
f 69//136 64//136 65//136
f 65//137 66//137 70//137
f 65//138 70//138 69//138
f 71//139 70//139 67//139
f 71//140 67//140 68//140
f 69//141 70//141 72//141
f 72//142 70//142 71//142
f 42//143 156//143 157//143
f 43//144 157//144 158//144
f 73//145 75//145 74//145
f 73//2 76//2 75//2
f 77//146 74//146 78//146
f 77//147 73//147 74//147
f 79//148 78//148 80//148
f 79//149 77//149 78//149
f 81//150 80//150 82//150
f 81//151 79//151 80//151
f 83//152 82//152 84//152
f 83//153 81//153 82//153
f 236//154 84//154 235//154
f 236//155 83//155 84//155
f 74//156 86//156 85//156
f 74//14 75//14 86//14
f 78//157 85//157 87//157
f 78//158 74//158 85//158
f 80//159 87//159 88//159
f 80//160 78//160 87//160
f 82//161 88//161 89//161
f 82//162 80//162 88//162
f 84//163 89//163 90//163
f 84//164 82//164 89//164
f 235//165 90//165 237//165
f 235//166 84//166 90//166
f 85//167 92//167 91//167
f 85//26 86//26 92//26
f 87//168 91//168 93//168
f 87//169 85//169 91//169
f 88//170 93//170 94//170
f 88//171 87//171 93//171
f 89//172 94//172 95//172
f 89//173 88//173 94//173
f 90//174 95//174 96//174
f 90//175 89//175 95//175
f 237//176 96//176 238//176
f 237//177 90//177 96//177
f 91//178 98//178 97//178
f 91//38 92//38 98//38
f 93//179 97//179 99//179
f 93//180 91//180 97//180
f 94//181 99//181 100//181
f 94//182 93//182 99//182
f 95//183 100//183 101//183
f 95//184 94//184 100//184
f 96//185 101//185 102//185
f 96//186 95//186 101//186
f 238//187 102//187 239//187
f 238//188 96//188 102//188
f 97//189 104//189 103//189
f 97//50 98//50 104//50
f 99//190 103//190 105//190
f 99//191 97//191 103//191
f 100//192 105//192 106//192
f 100//193 99//193 105//193
f 101//194 106//194 107//194
f 101//195 100//195 106//195
f 102//196 107//196 108//196
f 102//197 101//197 107//197
f 239//198 108//198 240//198
f 239//199 102//199 108//199
f 103//200 110//200 109//200
f 103//62 104//62 110//62
f 105//201 109//201 111//201
f 105//202 103//202 109//202
f 106//203 111//203 112//203
f 106//204 105//204 111//204
f 107//205 112//205 113//205
f 107//206 106//206 112//206
f 108//207 113//207 114//207
f 108//208 107//208 113//208
f 240//209 114//209 241//209
f 240//210 108//210 114//210
f 110//73 115//73 109//73
f 109//211 116//211 111//211
f 109//212 115//212 116//212
f 111//213 117//213 112//213
f 111//214 116//214 117//214
f 112//215 118//215 113//215
f 112//216 117//216 118//216
f 113//217 119//217 114//217
f 113//218 118//218 119//218
f 114//219 120//219 241//219
f 114//220 119//220 120//220
f 121//221 242//221 120//221
f 122//222 243//222 121//222
f 122//223 244//223 243//223
f 123//224 244//224 122//224
f 123//225 245//225 244//225
f 124//226 245//226 123//226
f 124//227 246//227 245//227
f 125//228 246//228 124//228
f 133//229 124//229 123//229
f 246//230 125//230 247//230
f 115//94 126//94 116//94
f 116//231 127//231 117//231
f 116//232 126//232 127//232
f 117//233 128//233 118//233
f 117//234 127//234 128//234
f 118//235 129//235 119//235
f 118//236 128//236 129//236
f 119//237 130//237 120//237
f 119//238 129//238 130//238
f 131//239 121//239 130//239
f 138//240 131//240 130//240
f 132//241 122//241 131//241
f 130//242 121//242 120//242
f 133//243 123//243 132//243
f 131//244 122//244 121//244
f 134//245 124//245 133//245
f 132//246 123//246 122//246
f 134//247 125//247 124//247
f 126//112 135//112 127//112
f 127//248 136//248 128//248
f 127//249 135//249 136//249
f 128//250 137//250 129//250
f 128//251 136//251 137//251
f 129//252 138//252 130//252
f 129//253 137//253 138//253
f 139//254 131//254 138//254
f 139//255 132//255 131//255
f 140//256 132//256 139//256
f 140//257 133//257 132//257
f 141//258 133//258 140//258
f 144//259 139//259 138//259
f 133//260 141//260 134//260
f 142//126 136//126 135//126
f 136//261 143//261 137//261
f 136//262 142//262 143//262
f 137//263 144//263 138//263
f 137//264 143//264 144//264
f 145//265 139//265 144//265
f 145//266 140//266 139//266
f 146//267 140//267 145//267
f 148//268 145//268 144//268
f 146//269 141//269 140//269
f 147//136 143//136 142//136
f 143//270 148//270 144//270
f 143//271 147//271 148//271
f 149//272 145//272 148//272
f 149//273 146//273 145//273
f 147//141 150//141 148//141
f 150//274 149//274 148//274
f 120//275 242//275 241//275
f 121//276 243//276 242//276
f 248//277 164//277 163//277
f 248//278 251//278 164//278
f 252//279 163//279 165//279
f 252//280 248//280 163//280
f 254//281 165//281 166//281
f 254//282 252//282 165//282
f 256//283 166//283 167//283
f 256//284 254//284 166//284
f 258//285 167//285 168//285
f 258//286 256//286 167//286
f 236//287 168//287 151//287
f 236//288 258//288 168//288
f 163//289 170//289 169//289
f 163//290 164//290 170//290
f 165//291 169//291 171//291
f 165//292 163//292 169//292
f 166//293 171//293 172//293
f 166//294 165//294 171//294
f 167//295 172//295 173//295
f 167//296 166//296 172//296
f 168//297 173//297 174//297
f 168//298 167//298 173//298
f 151//299 174//299 152//299
f 151//300 168//300 174//300
f 169//301 176//301 175//301
f 169//302 170//302 176//302
f 171//303 175//303 177//303
f 171//304 169//304 175//304
f 172//305 177//305 178//305
f 172//306 171//306 177//306
f 173//307 178//307 179//307
f 173//308 172//308 178//308
f 174//309 179//309 180//309
f 174//310 173//310 179//310
f 152//311 180//311 153//311
f 152//312 174//312 180//312
f 175//313 182//313 181//313
f 175//314 176//314 182//314
f 177//315 181//315 183//315
f 177//316 175//316 181//316
f 178//317 183//317 184//317
f 178//318 177//318 183//318
f 179//319 184//319 185//319
f 179//320 178//320 184//320
f 180//321 185//321 186//321
f 180//322 179//322 185//322
f 153//323 186//323 154//323
f 153//324 180//324 186//324
f 181//325 188//325 187//325
f 181//326 182//326 188//326
f 183//327 187//327 189//327
f 183//328 181//328 187//328
f 184//329 189//329 190//329
f 184//330 183//330 189//330
f 185//331 190//331 191//331
f 185//332 184//332 190//332
f 186//333 191//333 192//333
f 186//334 185//334 191//334
f 154//335 192//335 155//335
f 154//336 186//336 192//336
f 187//337 194//337 193//337
f 187//338 188//338 194//338
f 189//339 193//339 195//339
f 189//340 187//340 193//340
f 190//341 195//341 196//341
f 190//342 189//342 195//342
f 191//343 196//343 197//343
f 191//344 190//344 196//344
f 192//345 197//345 198//345
f 192//346 191//346 197//346
f 155//347 198//347 156//347
f 155//348 192//348 198//348
f 194//349 199//349 193//349
f 193//350 200//350 195//350
f 193//351 199//351 200//351
f 195//352 201//352 196//352
f 195//353 200//353 201//353
f 196//354 202//354 197//354
f 196//355 201//355 202//355
f 197//356 203//356 198//356
f 197//357 202//357 203//357
f 198//358 204//358 156//358
f 198//359 203//359 204//359
f 205//360 157//360 204//360
f 206//361 158//361 205//361
f 206//362 159//362 158//362
f 207//363 159//363 206//363
f 207//364 160//364 159//364
f 208//365 160//365 207//365
f 208//366 161//366 160//366
f 209//367 161//367 208//367
f 217//368 208//368 207//368
f 161//93 209//93 162//93
f 199//369 210//369 200//369
f 200//370 211//370 201//370
f 200//371 210//371 211//371
f 201//372 212//372 202//372
f 201//373 211//373 212//373
f 202//374 213//374 203//374
f 202//375 212//375 213//375
f 203//376 214//376 204//376
f 203//377 213//377 214//377
f 215//378 205//378 214//378
f 222//379 215//379 214//379
f 216//380 206//380 215//380
f 214//381 205//381 204//381
f 217//382 207//382 216//382
f 215//383 206//383 205//383
f 218//384 208//384 217//384
f 216//385 207//385 206//385
f 218//111 209//111 208//111
f 210//386 219//386 211//386
f 211//387 220//387 212//387
f 211//388 219//388 220//388
f 212//389 221//389 213//389
f 212//390 220//390 221//390
f 213//391 222//391 214//391
f 213//392 221//392 222//392
f 223//393 215//393 222//393
f 223//394 216//394 215//394
f 224//395 216//395 223//395
f 224//396 217//396 216//396
f 225//397 217//397 224//397
f 228//398 223//398 222//398
f 217//125 225//125 218//125
f 226//399 220//399 219//399
f 220//400 227//400 221//400
f 220//401 226//401 227//401
f 221//402 228//402 222//402
f 221//403 227//403 228//403
f 229//404 223//404 228//404
f 229//405 224//405 223//405
f 230//406 224//406 229//406
f 232//407 229//407 228//407
f 230//135 225//135 224//135
f 231//408 227//408 226//408
f 227//409 232//409 228//409
f 227//410 231//410 232//410
f 233//411 229//411 232//411
f 233//140 230//140 229//140
f 231//412 234//412 232//412
f 234//142 233//142 232//142
f 204//413 157//413 156//413
f 205//414 158//414 157//414
f 248//415 249//415 250//415
f 248//278 250//278 251//278
f 252//416 253//416 249//416
f 252//417 249//417 248//417
f 254//418 255//418 253//418
f 254//419 253//419 252//419
f 256//420 257//420 255//420
f 256//421 255//421 254//421
f 258//422 259//422 257//422
f 258//423 257//423 256//423
f 236//424 235//424 259//424
f 236//425 259//425 258//425
f 249//426 260//426 261//426
f 249//290 261//290 250//290
f 253//427 262//427 260//427
f 253//428 260//428 249//428
f 255//429 263//429 262//429
f 255//430 262//430 253//430
f 257//431 264//431 263//431
f 257//432 263//432 255//432
f 259//433 265//433 264//433
f 259//434 264//434 257//434
f 235//435 237//435 265//435
f 235//436 265//436 259//436
f 260//437 266//437 267//437
f 260//302 267//302 261//302
f 262//438 268//438 266//438
f 262//439 266//439 260//439
f 263//440 269//440 268//440
f 263//441 268//441 262//441
f 264//442 270//442 269//442
f 264//443 269//443 263//443
f 265//444 271//444 270//444
f 265//445 270//445 264//445
f 237//446 238//446 271//446
f 237//447 271//447 265//447
f 266//448 272//448 273//448
f 266//314 273//314 267//314
f 268//449 274//449 272//449
f 268//450 272//450 266//450
f 269//451 275//451 274//451
f 269//452 274//452 268//452
f 270//453 276//453 275//453
f 270//454 275//454 269//454
f 271//455 277//455 276//455
f 271//456 276//456 270//456
f 238//457 239//457 277//457
f 238//458 277//458 271//458
f 272//459 278//459 279//459
f 272//326 279//326 273//326
f 274//460 280//460 278//460
f 274//461 278//461 272//461
f 275//462 281//462 280//462
f 275//463 280//463 274//463
f 276//464 282//464 281//464
f 276//465 281//465 275//465
f 277//466 283//466 282//466
f 277//467 282//467 276//467
f 239//468 240//468 283//468
f 239//469 283//469 277//469
f 278//470 284//470 285//470
f 278//338 285//338 279//338
f 280//471 286//471 284//471
f 280//472 284//472 278//472
f 281//473 287//473 286//473
f 281//474 286//474 280//474
f 282//475 288//475 287//475
f 282//476 287//476 281//476
f 283//477 289//477 288//477
f 283//478 288//478 282//478
f 240//479 241//479 289//479
f 240//480 289//480 283//480
f 285//349 284//349 290//349
f 284//481 286//481 291//481
f 284//482 291//482 290//482
f 286//483 287//483 292//483
f 286//484 292//484 291//484
f 287//485 288//485 293//485
f 287//486 293//486 292//486
f 288//487 289//487 294//487
f 288//488 294//488 293//488
f 289//489 241//489 295//489
f 289//490 295//490 294//490
f 296//491 295//491 242//491
f 297//492 296//492 243//492
f 297//493 243//493 244//493
f 298//494 297//494 244//494
f 298//495 244//495 245//495
f 299//496 298//496 245//496
f 299//497 245//497 246//497
f 300//498 299//498 246//498
f 308//499 298//499 299//499
f 246//230 247//230 300//230
f 290//369 291//369 301//369
f 291//500 292//500 302//500
f 291//501 302//501 301//501
f 292//502 293//502 303//502
f 292//503 303//503 302//503
f 293//504 294//504 304//504
f 293//505 304//505 303//505
f 294//506 295//506 305//506
f 294//507 305//507 304//507
f 306//508 305//508 296//508
f 313//509 305//509 306//509
f 307//510 306//510 297//510
f 305//511 295//511 296//511
f 308//512 307//512 298//512
f 306//513 296//513 297//513
f 309//514 308//514 299//514
f 307//515 297//515 298//515
f 309//247 299//247 300//247
f 301//386 302//386 310//386
f 302//516 303//516 311//516
f 302//517 311//517 310//517
f 303//518 304//518 312//518
f 303//519 312//519 311//519
f 304//520 305//520 313//520
f 304//521 313//521 312//521
f 314//522 313//522 306//522
f 314//523 306//523 307//523
f 315//524 314//524 307//524
f 315//525 307//525 308//525
f 316//526 315//526 308//526
f 319//527 313//527 314//527
f 308//260 309//260 316//260
f 317//399 310//399 311//399
f 311//528 312//528 318//528
f 311//529 318//529 317//529
f 312//530 313//530 319//530
f 312//531 319//531 318//531
f 320//532 319//532 314//532
f 320//533 314//533 315//533
f 321//534 320//534 315//534
f 323//535 319//535 320//535
f 321//269 315//269 316//269
f 322//408 317//408 318//408
f 318//536 319//536 323//536
f 318//537 323//537 322//537
f 324//538 323//538 320//538
f 324//273 320//273 321//273
f 322//412 323//412 325//412
f 325//274 323//274 324//274
f 295//539 241//539 242//539
f 296//540 242//540 243//540
