v -0.963542 -0.963542 0.000000
v -0.888118 -0.888117 0.042369
v -0.995371 -0.884260 0.006312
v -0.777778 -1.000000 0.050493
v -0.884260 -0.995371 0.006312
v -0.777778 -0.888889 0.105807
v -0.888889 -0.777778 0.105807
v -1.000000 -0.777778 0.050493
v -0.666667 -1.000000 0.157680
v -0.555556 -1.000000 0.302065
v -0.666667 -0.888889 0.215171
v -0.555556 -0.888889 0.353660
v -0.666667 -0.777778 0.287107
v -0.777778 -0.777778 0.180248
v -0.444445 -1.000000 0.449718
v -0.333333 -1.000000 0.585148
v -0.444445 -0.888889 0.497912
v -0.333333 -0.888889 0.633688
v -0.444445 -0.777778 0.552624
v -0.555556 -0.777778 0.416331
v -0.222222 -1.000000 0.696939
v -0.111111 -1.000000 0.771530
v -0.222222 -0.888889 0.748257
v -0.111111 -0.888889 0.825828
v -0.222222 -0.777778 0.794561
v -0.333333 -0.777778 0.683079
v 0.000000 -1.000000 0.797177
v 0.111111 -0.888889 0.825828
v 0.000000 -0.888889 0.852605
v 0.111111 -0.777778 0.870647
v 0.000000 -0.777778 0.896967
v -0.111111 -0.777778 0.870647
v 0.111111 -1.000000 0.771530
v 0.222222 -0.888889 0.748256
v 0.222222 -1.000000 0.696939
v 0.333333 -0.888889 0.633688
v 0.333333 -0.777778 0.683079
v 0.222222 -0.777778 0.794561
v 0.333333 -1.000000 0.585148
v 0.444445 -0.888889 0.497912
v 0.444445 -1.000000 0.449718
v 0.555556 -0.888889 0.353660
v 0.555556 -0.777778 0.416331
v 0.444445 -0.777778 0.552624
v 0.555556 -1.000000 0.302065
v 0.666667 -0.888889 0.215171
v 0.666667 -1.000000 0.157680
v 0.777778 -0.888889 0.105807
v 0.777778 -0.777778 0.180248
v 0.666667 -0.777778 0.287107
v 0.777778 -1.000000 0.050493
v 0.888117 -0.888117 0.042369
v 0.963542 -0.963542 0.000000
v 0.884260 -0.995371 0.006312
v 1.000000 -0.777778 0.050493
v 0.888889 -0.777778 0.105807
v -1.000000 -0.666667 0.157680
v -0.888889 -0.666667 0.215171
v -0.777778 -0.666667 0.287107
v -0.888889 -0.555556 0.353660
v -1.000000 -0.555556 0.302065
v -0.666667 -0.666667 0.383649
v -0.555556 -0.666667 0.497829
v -0.666667 -0.555556 0.497829
v -0.777778 -0.555556 0.416331
v -0.444445 -0.666667 0.618375
v -0.333333 -0.666667 0.733913
v -0.444445 -0.555556 0.691700
v -0.555556 -0.555556 0.592610
v -0.222222 -0.666667 0.832447
v -0.111111 -0.666667 0.899571
v -0.222222 -0.555556 0.864942
v -0.333333 -0.555556 0.785730
v 0.111111 -0.666667 0.899571
v 0.000000 -0.666667 0.922780
v 0.111111 -0.555556 0.918435
v 0.000000 -0.555556 0.936888
v -0.111111 -0.555556 0.918435
v 0.222222 -0.666667 0.832447
v 0.333333 -0.666667 0.733913
v 0.333333 -0.555556 0.785730
v 0.222222 -0.555556 0.864942
v 0.444445 -0.666667 0.618374
v 0.555556 -0.666667 0.497829
v 0.555556 -0.555556 0.592610
v 0.444445 -0.555556 0.691700
v 0.666667 -0.666667 0.383649
v 0.777778 -0.666667 0.287107
v 0.777778 -0.555556 0.416331
v 0.666667 -0.555556 0.497829
v 0.888889 -0.666667 0.215171
v 1.000000 -0.666667 0.157680
v 1.000000 -0.555556 0.302065
v 0.888889 -0.555556 0.353660
v -1.000000 -0.444445 0.449718
v -0.888889 -0.444445 0.497912
v -0.777778 -0.444445 0.552624
v -0.888889 -0.333333 0.633688
v -1.000000 -0.333333 0.585148
v -0.666667 -0.444445 0.618375
v -0.555556 -0.444445 0.691700
v -0.666667 -0.333333 0.733913
v -0.777778 -0.333333 0.683079
v -0.444445 -0.444445 0.766881
v -0.333333 -0.444445 0.837165
v -0.444445 -0.333333 0.837165
v -0.555556 -0.333333 0.785730
v -0.222222 -0.444445 0.895464
v -0.111111 -0.444445 0.934412
v -0.222222 -0.333333 0.922569
v -0.333333 -0.333333 0.884282
v 0.111111 -0.444445 0.934412
v 0.000000 -0.444445 0.947808
v 0.111111 -0.333333 0.947775
v 0.000000 -0.333333 0.956409
v -0.111111 -0.333333 0.947775
v 0.222222 -0.444445 0.895464
v 0.333333 -0.444445 0.837164
v 0.333333 -0.333333 0.884282
v 0.222222 -0.333333 0.922569
v 0.444445 -0.444445 0.766882
v 0.555556 -0.444445 0.691700
v 0.555556 -0.333333 0.785730
v 0.444445 -0.333333 0.837164
v 0.666667 -0.444445 0.618375
v 0.777778 -0.444445 0.552624
v 0.777778 -0.333333 0.683079
v 0.666667 -0.333333 0.733913
v 0.888889 -0.444445 0.497912
v 1.000000 -0.444445 0.449718
v 1.000000 -0.333333 0.585148
v 0.888889 -0.333333 0.633688
v -1.000000 -0.222222 0.696939
v -0.888889 -0.222222 0.748257
v -0.777778 -0.222222 0.794561
v -0.888889 -0.111111 0.825828
v -1.000000 -0.111111 0.771530
v -0.666667 -0.222222 0.832447
v -0.555556 -0.222222 0.864942
v -0.666667 -0.111111 0.899571
v -0.777778 -0.111111 0.870647
v -0.444445 -0.222222 0.895464
v -0.333333 -0.222222 0.922569
v -0.444445 -0.111111 0.934412
v -0.555556 -0.111111 0.918435
v -0.222222 -0.222222 0.943777
v -0.111111 -0.222222 0.957339
v -0.222222 -0.111111 0.957339
v -0.333333 -0.111111 0.947775
v 0.111111 -0.222222 0.957339
v 0.000000 -0.222222 0.961946
v 0.111111 -0.111111 0.962993
v 0.000000 -0.111111 0.964869
v -0.111111 -0.111111 0.962993
v 0.222222 -0.222222 0.943777
v 0.333333 -0.222222 0.922569
v 0.333333 -0.111111 0.947775
v 0.222222 -0.111111 0.957339
v 0.444445 -0.222222 0.895464
v 0.555556 -0.222222 0.864942
v 0.555556 -0.111111 0.918435
v 0.444445 -0.111111 0.934412
v 0.666667 -0.222222 0.832447
v 0.777778 -0.222222 0.794561
v 0.777778 -0.111111 0.870647
v 0.666667 -0.111111 0.899571
v 0.888889 -0.222222 0.748257
v 1.000000 -0.222222 0.696939
v 1.000000 -0.111111 0.771530
v 0.888889 -0.111111 0.825828
v -1.000000 0.000000 0.797177
v -0.888889 0.000000 0.852605
v -0.777778 0.111111 0.870647
v -0.888889 0.111111 0.825828
v -1.000000 0.111111 0.771530
v -0.777778 0.000000 0.896968
v -0.666667 0.000000 0.922780
v -0.555556 0.111111 0.918435
v -0.666667 0.111111 0.899571
v -0.555556 0.000000 0.936888
v -0.444445 0.000000 0.947808
v -0.333333 0.111111 0.947775
v -0.444445 0.111111 0.934412
v -0.333333 0.000000 0.956409
v -0.222222 0.000000 0.961946
v -0.111111 0.111111 0.962993
v -0.222222 0.111111 0.957339
v -0.111111 0.000000 0.964869
v 0.111111 0.000000 0.964869
v 0.000000 0.000000 0.965802
v 0.000000 0.111111 0.964869
v 0.222222 0.000000 0.961946
v 0.333333 0.000000 0.956409
v 0.222222 0.111111 0.957339
v 0.111111 0.111111 0.962993
v 0.444445 0.000000 0.947808
v 0.555556 0.000000 0.936888
v 0.444445 0.111111 0.934412
v 0.333333 0.111111 0.947775
v 0.666667 0.000000 0.922780
v 0.777778 0.000000 0.896968
v 0.666667 0.111111 0.899571
v 0.555556 0.111111 0.918435
v 0.888889 0.000000 0.852605
v 1.000000 0.000000 0.797177
v 0.888889 0.111111 0.825828
v 0.777778 0.111111 0.870647
v -0.888889 0.222222 0.748257
v -1.000000 0.222222 0.696939
v -0.777778 0.222222 0.794561
v -0.777778 0.333333 0.683079
v -0.888889 0.333333 0.633688
v -1.000000 0.333333 0.585149
v -0.666667 0.222222 0.832447
v -0.555556 0.222222 0.864942
v -0.555556 0.333333 0.785730
v -0.666667 0.333333 0.733913
v -0.444445 0.222222 0.895464
v -0.333333 0.222222 0.922569
v -0.333333 0.333333 0.884282
v -0.444445 0.333333 0.837165
v -0.222222 0.222222 0.943778
v -0.111111 0.222222 0.957339
v -0.111111 0.333333 0.947775
v -0.222222 0.333333 0.922569
v 0.000000 0.222222 0.961946
v 0.111111 0.222222 0.957339
v 0.000000 0.333333 0.956409
v 0.222222 0.222222 0.943778
v 0.333333 0.222222 0.922569
v 0.222222 0.333333 0.922569
v 0.111111 0.333333 0.947775
v 0.444445 0.222222 0.895464
v 0.555556 0.222222 0.864942
v 0.444445 0.333333 0.837165
v 0.333333 0.333333 0.884282
v 0.666667 0.222222 0.832447
v 0.777778 0.222222 0.794561
v 0.666667 0.333333 0.733913
v 0.555556 0.333333 0.785730
v 1.000000 0.111111 0.771530
v 0.888889 0.222222 0.748257
v 1.000000 0.222222 0.696939
v 0.888889 0.333333 0.633688
v 0.777778 0.333333 0.683079
v -0.888889 0.444444 0.497913
v -1.000000 0.444444 0.449718
v -0.777778 0.444444 0.552624
v -0.777778 0.555556 0.416331
v -0.888889 0.555556 0.353660
v -1.000000 0.555556 0.302065
v -0.666667 0.444444 0.618375
v -0.555556 0.444444 0.691700
v -0.555556 0.555556 0.592610
v -0.666667 0.555556 0.497830
v -0.444445 0.444444 0.766882
v -0.333333 0.444444 0.837165
v -0.333333 0.555556 0.785730
v -0.444445 0.555556 0.691700
v -0.222222 0.444444 0.895464
v -0.111111 0.444444 0.934412
v -0.111111 0.555556 0.918435
v -0.222222 0.555556 0.864942
v 0.000000 0.444444 0.947808
v 0.111111 0.444444 0.934412
v 0.000000 0.555556 0.936888
v 0.222222 0.444444 0.895464
v 0.333333 0.444444 0.837165
v 0.222222 0.555556 0.864942
v 0.111111 0.555556 0.918436
v 0.444445 0.444444 0.766882
v 0.555556 0.444444 0.691700
v 0.444445 0.555556 0.691700
v 0.333333 0.555556 0.785730
v 0.666667 0.444444 0.618375
v 0.777778 0.444444 0.552624
v 0.666667 0.555556 0.497830
v 0.555556 0.555556 0.592610
v 1.000000 0.333333 0.585149
v 0.888889 0.444444 0.497913
v 1.000000 0.444444 0.449718
v 0.888889 0.555556 0.353660
v 0.777778 0.555556 0.416331
v -0.888889 0.666667 0.215172
v -1.000000 0.666667 0.157680
v -0.777778 0.666667 0.287107
v -0.777778 0.777778 0.180248
v -0.888889 0.777778 0.105807
v -1.000000 0.777778 0.050493
v -0.666667 0.666667 0.383649
v -0.555556 0.666667 0.497830
v -0.555556 0.777778 0.416331
v -0.666667 0.777778 0.287107
v -0.444445 0.666667 0.618375
v -0.333333 0.666667 0.733913
v -0.333333 0.777778 0.683079
v -0.444445 0.777778 0.552624
v -0.222222 0.666667 0.832447
v -0.111111 0.666667 0.899572
v -0.111111 0.777778 0.870648
v -0.222222 0.777778 0.794561
v 0.000000 0.666667 0.922780
v 0.111111 0.666667 0.899572
v 0.000000 0.777778 0.896968
v 0.222222 0.666667 0.832447
v 0.333333 0.666667 0.733913
v 0.222222 0.777778 0.794561
v 0.111111 0.777778 0.870648
v 0.444445 0.666667 0.618375
v 0.555556 0.666667 0.497830
v 0.444445 0.777778 0.552624
v 0.333333 0.777778 0.683079
v 0.666667 0.666667 0.383649
v 0.777778 0.666667 0.287107
v 0.666667 0.777778 0.287107
v 0.555556 0.777778 0.416331
v 1.000000 0.555556 0.302065
v 0.888889 0.666667 0.215172
v 1.000000 0.666667 0.157680
v 0.888889 0.777778 0.105807
v 0.777778 0.777778 0.180248
v -0.888117 0.888117 0.042369
v -0.995371 0.884259 0.006312
v -0.777778 0.888889 0.105807
v -0.777778 1.000000 0.050494
v -0.884260 0.995371 0.006312
v -0.963542 0.963542 0.000000
v -0.666667 0.888889 0.215172
v -0.555556 0.888889 0.353660
v -0.555556 1.000000 0.302065
v -0.666667 1.000000 0.157680
v -0.444445 0.888889 0.497913
v -0.333333 0.888889 0.633688
v -0.333333 1.000000 0.585149
v -0.444445 1.000000 0.449718
v -0.222222 0.888889 0.748257
v -0.111111 0.888889 0.825828
v -0.111111 1.000000 0.771530
v -0.222222 1.000000 0.696939
v 0.000000 0.888889 0.852605
v 0.111111 0.888889 0.825828
v 0.000000 1.000000 0.797177
v 0.222222 0.888889 0.748257
v 0.333333 0.888889 0.633688
v 0.222222 1.000000 0.696939
v 0.111111 1.000000 0.771530
v 0.444445 0.888889 0.497913
v 0.555556 0.888889 0.353660
v 0.444445 1.000000 0.449719
v 0.333333 1.000000 0.585149
v 0.666667 0.888889 0.215172
v 0.777778 0.888889 0.105807
v 0.666667 1.000000 0.157680
v 0.555556 1.000000 0.302065
v 1.000000 0.777778 0.050493
v 0.888117 0.888117 0.042369
v 0.963542 0.963542 0.000000
v 0.884259 0.995371 0.006312
v 0.777778 1.000000 0.050494
v 0.995371 -0.884260 0.006312
v 0.995371 0.884260 0.006312
vn -0.3186 -0.2017 0.9262
vn -0.3761 -0.3074 0.8741
vn -0.4480 -0.4480 0.7737
vn -0.3074 -0.3761 0.8741
vn -0.6536 -0.3373 0.6775
vn -0.7558 -0.3009 0.5816
vn -0.7229 -0.3755 0.5800
vn -0.6327 -0.4305 0.6437
vn -0.6284 -0.4234 0.6526
vn -0.6330 -0.4309 0.6431
vn -0.7696 -0.2689 0.5791
vn -0.7454 -0.2653 0.6116
vn -0.7388 -0.2977 0.6046
vn -0.7394 -0.2974 0.6040
vn -0.7491 -0.3255 0.5770
vn -0.6778 -0.2943 0.6737
vn -0.5204 -0.3580 0.7752
vn -0.5416 -0.3229 0.7761
vn -0.5365 -0.3160 0.7825
vn -0.5417 -0.3233 0.7759
vn -0.6855 -0.2968 0.6648
vn -0.6858 -0.2956 0.6651
vn -0.6836 -0.3050 0.6631
vn -0.2031 -0.4299 0.8797
vn 0.2106 -0.4363 0.8748
vn 0.2032 -0.4301 0.8796
vn 0.2108 -0.4364 0.8747
vn 0.2165 -0.3637 0.9060
vn 0.2164 -0.3636 0.9061
vn 0.2149 -0.3621 0.9070
vn -0.2165 -0.3637 0.9060
vn -0.2164 -0.3636 0.9061
vn -0.2181 -0.3651 0.9051
vn 0.5314 -0.3719 0.7611
vn 0.6834 -0.3061 0.6628
vn 0.6836 -0.3050 0.6630
vn 0.6855 -0.2968 0.6648
vn 0.6795 -0.2822 0.6772
vn 0.5416 -0.3229 0.7761
vn 0.5365 -0.3160 0.7825
vn 0.5361 -0.3158 0.7829
vn 0.7455 -0.2655 0.6114
vn 0.7458 -0.2666 0.6104
vn 0.7459 -0.2667 0.6104
vn 0.7659 -0.2559 0.5899
vn 0.7394 -0.2974 0.6040
vn 0.7401 -0.2971 0.6033
vn 0.7315 -0.2770 0.6230
vn 0.7490 -0.2790 0.6009
vn 0.6540 -0.3379 0.6769
vn 0.6579 -0.3453 0.6693
vn 0.6582 -0.3460 0.6687
vn 0.6327 -0.4305 0.6437
vn 0.6284 -0.4234 0.6526
vn 0.6282 -0.4229 0.6532
vn 0.7117 -0.3451 0.6119
vn 0.4598 -0.3957 0.7950
vn 0.2017 -0.3186 0.9262
vn 0.3957 -0.4598 0.7950
vn 0.4863 -0.4863 0.7259
vn -0.3453 -0.6579 0.6693
vn -0.3379 -0.6540 0.6769
vn -0.3373 -0.6536 0.6775
vn -0.4233 -0.6284 0.6526
vn -0.4304 -0.6327 0.6437
vn -0.4309 -0.6330 0.6431
vn -0.3755 -0.7229 0.5800
vn -0.3009 -0.7558 0.5816
vn -0.5697 -0.5697 0.5924
vn -0.6597 -0.4929 0.5673
vn -0.5825 -0.5825 0.5669
vn -0.4929 -0.6597 0.5673
vn -0.7032 -0.4205 0.5733
vn -0.7108 -0.3582 0.6054
vn -0.6555 -0.4160 0.6303
vn -0.6366 -0.5005 0.5867
vn -0.6740 -0.3073 0.6718
vn -0.5439 -0.2708 0.7943
vn -0.5016 -0.2428 0.8303
vn -0.6265 -0.3294 0.7064
vn -0.2234 -0.2456 0.9433
vn 0.1994 -0.2217 0.9545
vn 0.1626 -0.1243 0.9788
vn -0.2017 -0.1639 0.9656
vn 0.5047 -0.2175 0.8354
vn 0.6429 -0.2472 0.7250
vn 0.5647 -0.2317 0.7921
vn 0.4288 -0.1512 0.8907
vn 0.6871 -0.3023 0.6607
vn 0.6825 -0.3722 0.6290
vn 0.5971 -0.4418 0.6695
vn 0.6086 -0.3354 0.7191
vn 0.6380 -0.4554 0.6209
vn 0.5484 -0.5484 0.6312
vn 0.4554 -0.6380 0.6209
vn 0.5444 -0.5444 0.6382
vn 0.4234 -0.6284 0.6526
vn 0.4305 -0.6327 0.6437
vn 0.4229 -0.6282 0.6532
vn 0.3460 -0.6582 0.6687
vn 0.2790 -0.7490 0.6009
vn 0.3451 -0.7117 0.6119
vn -0.2689 -0.7696 0.5791
vn -0.3255 -0.7491 0.5770
vn -0.2974 -0.7394 0.6040
vn -0.2977 -0.7388 0.6046
vn -0.2666 -0.7458 0.6104
vn -0.2655 -0.7455 0.6114
vn -0.2653 -0.7454 0.6116
vn -0.4205 -0.7032 0.5733
vn -0.5005 -0.6366 0.5867
vn -0.4160 -0.6555 0.6303
vn -0.3582 -0.7108 0.6054
vn -0.5541 -0.5541 0.6213
vn -0.5740 -0.4589 0.6782
vn -0.4714 -0.4714 0.7453
vn -0.4589 -0.5740 0.6782
vn -0.5432 -0.3527 0.7619
vn -0.4211 -0.2403 0.8746
vn -0.3224 -0.2243 0.9196
vn -0.3218 -0.2243 0.9199
vn -0.3181 -0.2245 0.9211
vn -0.4350 -0.3515 0.8290
vn -0.1622 -0.1404 0.9767
vn 0.1191 -0.0971 0.9881
vn 0.0772 -0.0769 0.9940
vn 0.0772 -0.0781 0.9940
vn 0.0772 -0.0843 0.9934
vn -0.1189 -0.1186 0.9858
vn 0.3278 -0.1345 0.9351
vn 0.4515 -0.2364 0.8604
vn 0.3181 -0.2245 0.9211
vn 0.3174 -0.2247 0.9213
vn 0.3218 -0.2243 0.9199
vn 0.2197 -0.1165 0.9686
vn 0.4978 -0.3643 0.7870
vn 0.4889 -0.4889 0.7225
vn 0.3643 -0.4978 0.7870
vn 0.3637 -0.3637 0.8576
vn 0.4418 -0.5971 0.6695
vn 0.3722 -0.6825 0.6290
vn 0.3023 -0.6871 0.6607
vn 0.3354 -0.6086 0.7191
vn 0.2971 -0.7401 0.6033
vn 0.2974 -0.7394 0.6040
vn 0.2559 -0.7659 0.5899
vn 0.2667 -0.7459 0.6104
vn 0.2770 -0.7315 0.6230
vn -0.2943 -0.6778 0.6737
vn -0.2956 -0.6858 0.6651
vn -0.2968 -0.6855 0.6648
vn -0.3050 -0.6836 0.6631
vn -0.3160 -0.5365 0.7825
vn -0.3229 -0.5416 0.7761
vn -0.3233 -0.5417 0.7759
vn -0.3580 -0.5204 0.7752
vn -0.3073 -0.6740 0.6718
vn -0.3294 -0.6265 0.7064
vn -0.2428 -0.5016 0.8303
vn -0.2708 -0.5439 0.7943
vn -0.3527 -0.5432 0.7619
vn -0.3515 -0.4350 0.8290
vn -0.2243 -0.3218 0.9199
vn -0.2243 -0.3224 0.9196
vn -0.2245 -0.3181 0.9211
vn -0.2403 -0.4211 0.8746
vn -0.3098 -0.3098 0.8989
vn -0.2175 -0.1830 0.9588
vn -0.1203 -0.1203 0.9854
vn -0.1830 -0.2175 0.9588
vn -0.0772 -0.0843 0.9934
vn -0.0772 -0.0855 0.9933
vn -0.0772 -0.0781 0.9940
vn 0.0414 -0.0497 0.9979
vn 0.0482 -0.0501 0.9976
vn 0.0414 -0.0504 0.9979
vn 0.0169 -0.0263 0.9995
vn -0.0414 -0.0504 0.9979
vn -0.0439 -0.0439 0.9981
vn -0.0482 -0.0501 0.9976
vn 0.1207 -0.0851 0.9890
vn 0.1843 -0.1843 0.9654
vn 0.0851 -0.1207 0.9890
vn 0.0501 -0.0482 0.9976
vn 0.0439 -0.0439 0.9981
vn 0.2247 -0.3175 0.9213
vn 0.2245 -0.3181 0.9211
vn 0.2243 -0.3218 0.9199
vn 0.2364 -0.4515 0.8604
vn 0.1345 -0.3278 0.9351
vn 0.1165 -0.2197 0.9686
vn 0.2317 -0.5647 0.7921
vn 0.2472 -0.6429 0.7250
vn 0.2175 -0.5047 0.8354
vn 0.1512 -0.4288 0.8907
vn 0.2822 -0.6795 0.6772
vn 0.3050 -0.6836 0.6631
vn 0.3061 -0.6834 0.6628
vn 0.2968 -0.6855 0.6648
vn 0.3719 -0.5314 0.7611
vn 0.3160 -0.5365 0.7825
vn 0.3229 -0.5416 0.7761
vn 0.3158 -0.5361 0.7829
vn -0.4302 -0.2032 0.8796
vn -0.4363 -0.2106 0.8748
vn -0.4299 -0.2031 0.8797
vn -0.3636 -0.2164 0.9061
vn -0.3637 -0.2165 0.9060
vn -0.3651 -0.2181 0.9051
vn -0.3637 0.2165 0.9060
vn -0.3636 0.2164 0.9061
vn -0.3651 0.2181 0.9051
vn -0.4299 0.2031 0.8797
vn -0.2456 -0.2235 0.9433
vn -0.1639 -0.2017 0.9656
vn -0.1639 0.2017 0.9656
vn -0.2456 0.2235 0.9433
vn -0.1404 -0.1622 0.9767
vn -0.1186 -0.1189 0.9858
vn -0.1186 0.1189 0.9858
vn -0.1404 0.1622 0.9767
vn -0.0855 -0.0772 0.9933
vn -0.0843 -0.0772 0.9934
vn -0.0781 -0.0772 0.9940
vn -0.0504 -0.0414 0.9979
vn -0.0501 -0.0482 0.9976
vn -0.0504 0.0414 0.9979
vn -0.0439 0.0439 0.9981
vn -0.0501 0.0482 0.9976
vn -0.0843 0.0772 0.9934
vn -0.0855 0.0772 0.9933
vn -0.0781 0.0772 0.9940
vn -0.0170 -0.0182 0.9997
vn -0.0169 -0.0169 0.9997
vn -0.0169 -0.0250 0.9995
vn 0.0084 -0.0084 0.9999
vn 0.0084 0.0084 0.9999
vn -0.0182 0.0170 0.9997
vn -0.0169 0.0169 0.9997
vn -0.0250 0.0169 0.9995
vn 0.0250 -0.0169 0.9995
vn 0.0263 -0.0169 0.9995
vn 0.0182 -0.0170 0.9997
vn 0.0497 -0.0414 0.9979
vn 0.0504 -0.0414 0.9979
vn 0.0497 0.0414 0.9979
vn 0.0501 0.0482 0.9976
vn 0.0504 0.0414 0.9979
vn 0.0263 0.0169 0.9995
vn 0.0781 -0.0772 0.9940
vn 0.0769 -0.0772 0.9940
vn 0.0843 -0.0772 0.9934
vn 0.0971 -0.1191 0.9881
vn 0.0971 0.1191 0.9881
vn 0.0769 0.0772 0.9940
vn 0.0781 0.0772 0.9940
vn 0.0843 0.0772 0.9934
vn 0.1243 -0.1626 0.9788
vn 0.2217 -0.1994 0.9545
vn 0.2217 0.1994 0.9545
vn 0.1243 0.1626 0.9788
vn 0.3636 -0.2164 0.9061
vn 0.3637 -0.2165 0.9060
vn 0.3621 -0.2149 0.9070
vn 0.4364 -0.2108 0.8747
vn 0.4363 0.2106 0.8748
vn 0.4302 0.2032 0.8796
vn 0.4364 0.2108 0.8747
vn 0.3637 0.2165 0.9060
vn 0.3636 0.2164 0.9061
vn 0.3621 0.2149 0.9070
vn -0.3580 0.5204 0.7752
vn -0.3229 0.5416 0.7761
vn -0.3160 0.5365 0.7825
vn -0.3233 0.5417 0.7759
vn -0.2968 0.6855 0.6648
vn -0.2956 0.6858 0.6651
vn -0.3050 0.6836 0.6631
vn -0.2943 0.6778 0.6737
vn -0.2708 0.5439 0.7943
vn -0.2428 0.5016 0.8303
vn -0.3294 0.6265 0.7064
vn -0.3073 0.6740 0.6718
vn -0.2403 0.4211 0.8746
vn -0.2243 0.3224 0.9196
vn -0.2243 0.3218 0.9199
vn -0.2245 0.3181 0.9211
vn -0.3515 0.4350 0.8290
vn -0.3527 0.5432 0.7619
vn -0.1830 0.2175 0.9588
vn -0.1203 0.1203 0.9854
vn -0.2175 0.1830 0.9588
vn -0.3098 0.3098 0.8989
vn -0.0414 0.0504 0.9979
vn -0.0482 0.0501 0.9976
vn 0.0169 0.0250 0.9995
vn 0.0169 0.0263 0.9995
vn 0.0170 0.0182 0.9997
vn 0.0482 0.0501 0.9976
vn 0.0414 0.0497 0.9979
vn 0.0414 0.0504 0.9979
vn -0.0772 0.0855 0.9933
vn -0.0772 0.0843 0.9934
vn -0.0772 0.0781 0.9940
vn 0.0439 0.0439 0.9981
vn 0.0851 0.1207 0.9890
vn 0.1843 0.1843 0.9654
vn 0.1207 0.0851 0.9890
vn 0.1165 0.2197 0.9686
vn 0.1345 0.3278 0.9351
vn 0.2364 0.4515 0.8604
vn 0.2245 0.3181 0.9211
vn 0.2247 0.3175 0.9213
vn 0.2243 0.3218 0.9199
vn 0.1512 0.4288 0.8907
vn 0.2175 0.5047 0.8354
vn 0.2472 0.6429 0.7250
vn 0.2317 0.5647 0.7921
vn 0.3229 0.5416 0.7761
vn 0.3160 0.5365 0.7825
vn 0.3158 0.5361 0.7829
vn 0.3719 0.5314 0.7611
vn 0.3061 0.6834 0.6628
vn 0.3050 0.6836 0.6631
vn 0.2968 0.6855 0.6648
vn 0.2822 0.6795 0.6772
vn -0.2653 0.7454 0.6116
vn -0.2977 0.7388 0.6046
vn -0.2974 0.7394 0.6040
vn -0.3255 0.7491 0.5770
vn -0.2689 0.7696 0.5791
vn -0.3582 0.7108 0.6054
vn -0.4160 0.6555 0.6303
vn -0.5005 0.6366 0.5868
vn -0.4205 0.7032 0.5733
vn -0.4589 0.5740 0.6782
vn -0.4714 0.4714 0.7453
vn -0.5740 0.4589 0.6782
vn -0.5541 0.5541 0.6213
vn -0.4350 0.3515 0.8290
vn -0.3218 0.2243 0.9199
vn -0.3224 0.2243 0.9196
vn -0.3181 0.2245 0.9211
vn -0.4211 0.2403 0.8746
vn -0.5432 0.3527 0.7619
vn -0.1189 0.1186 0.9858
vn 0.0772 0.0781 0.9940
vn 0.0772 0.0769 0.9940
vn 0.0772 0.0843 0.9934
vn 0.1191 0.0971 0.9881
vn -0.1622 0.1404 0.9767
vn 0.2197 0.1165 0.9686
vn 0.3175 0.2247 0.9213
vn 0.3181 0.2245 0.9211
vn 0.3218 0.2243 0.9199
vn 0.4515 0.2364 0.8604
vn 0.3278 0.1345 0.9351
vn 0.3637 0.3637 0.8576
vn 0.3643 0.4978 0.7870
vn 0.4889 0.4889 0.7225
vn 0.4978 0.3643 0.7870
vn 0.3354 0.6086 0.7191
vn 0.3023 0.6871 0.6607
vn 0.3722 0.6824 0.6290
vn 0.4418 0.5971 0.6695
vn 0.2770 0.7315 0.6230
vn 0.2655 0.7455 0.6114
vn 0.2665 0.7458 0.6105
vn 0.2666 0.7459 0.6104
vn 0.2559 0.7659 0.5899
vn 0.2974 0.7394 0.6040
vn 0.2971 0.7401 0.6033
vn -0.3009 0.7558 0.5816
vn -0.3755 0.7229 0.5800
vn -0.4306 0.6327 0.6437
vn -0.4234 0.6283 0.6526
vn -0.4309 0.6330 0.6431
vn -0.3373 0.6536 0.6775
vn -0.4929 0.6597 0.5673
vn -0.5825 0.5825 0.5669
vn -0.6597 0.4929 0.5673
vn -0.5697 0.5697 0.5924
vn -0.6366 0.5005 0.5867
vn -0.6555 0.4160 0.6303
vn -0.7108 0.3582 0.6054
vn -0.7032 0.4205 0.5733
vn -0.6265 0.3294 0.7064
vn -0.5016 0.2428 0.8303
vn -0.5439 0.2708 0.7943
vn -0.6740 0.3073 0.6718
vn -0.2017 0.1639 0.9656
vn 0.1626 0.1243 0.9788
vn 0.1994 0.2217 0.9545
vn -0.2234 0.2456 0.9433
vn 0.4288 0.1512 0.8907
vn 0.5647 0.2317 0.7921
vn 0.6429 0.2472 0.7250
vn 0.5047 0.2175 0.8354
vn 0.6086 0.3354 0.7191
vn 0.5971 0.4418 0.6695
vn 0.6825 0.3722 0.6290
vn 0.6871 0.3023 0.6607
vn 0.5444 0.5444 0.6382
vn 0.4554 0.6380 0.6209
vn 0.5484 0.5484 0.6312
vn 0.6380 0.4554 0.6209
vn 0.3451 0.7117 0.6119
vn 0.2790 0.7490 0.6009
vn 0.3379 0.6540 0.6769
vn 0.3453 0.6579 0.6693
vn 0.3460 0.6582 0.6687
vn 0.4306 0.6327 0.6437
vn 0.4234 0.6283 0.6526
vn 0.4229 0.6282 0.6532
vn -0.3074 0.3761 0.8741
vn -0.4480 0.4480 0.7737
vn -0.3761 0.3074 0.8741
vn -0.3186 0.2016 0.9262
vn -0.6283 0.4234 0.6526
vn -0.6327 0.4306 0.6437
vn -0.6330 0.4309 0.6431
vn -0.7229 0.3755 0.5800
vn -0.7558 0.3009 0.5816
vn -0.6579 0.3453 0.6693
vn -0.6540 0.3379 0.6769
vn -0.6536 0.3373 0.6775
vn -0.7491 0.3254 0.5770
vn -0.7394 0.2974 0.6040
vn -0.7388 0.2977 0.6046
vn -0.7458 0.2665 0.6105
vn -0.7455 0.2654 0.6114
vn -0.7454 0.2653 0.6116
vn -0.7696 0.2689 0.5791
vn -0.6858 0.2956 0.6651
vn -0.6855 0.2968 0.6648
vn -0.6836 0.3050 0.6631
vn -0.5365 0.3160 0.7825
vn -0.5416 0.3229 0.7761
vn -0.5417 0.3233 0.7759
vn -0.5204 0.3580 0.7752
vn -0.6778 0.2943 0.6737
vn -0.2164 0.3636 0.9061
vn -0.2165 0.3637 0.9060
vn -0.2181 0.3651 0.9051
vn 0.2164 0.3636 0.9061
vn 0.2165 0.3637 0.9060
vn 0.2149 0.3621 0.9070
vn 0.2108 0.4364 0.8747
vn -0.2032 0.4301 0.8796
vn -0.2105 0.4362 0.8749
vn -0.2031 0.4299 0.8797
vn 0.5365 0.3160 0.7825
vn 0.5416 0.3229 0.7761
vn 0.5361 0.3158 0.7829
vn 0.6795 0.2822 0.6772
vn 0.6836 0.3050 0.6631
vn 0.6834 0.3061 0.6628
vn 0.6855 0.2968 0.6648
vn 0.5314 0.3719 0.7611
vn 0.7315 0.2770 0.6230
vn 0.7401 0.2971 0.6033
vn 0.7394 0.2974 0.6040
vn 0.7659 0.2559 0.5899
vn 0.7459 0.2666 0.6104
vn 0.7117 0.3451 0.6119
vn 0.6283 0.4234 0.6526
vn 0.6327 0.4306 0.6437
vn 0.6282 0.4229 0.6532
vn 0.6582 0.3460 0.6687
vn 0.7490 0.2790 0.6009
vn 0.4863 0.4863 0.7259
vn 0.3957 0.4598 0.7950
vn 0.2017 0.3186 0.9262
vn 0.4598 0.3957 0.7950
vn -0.2017 -0.3186 0.9262
vn -0.4598 -0.3957 0.7950
vn -0.4863 -0.4863 0.7259
vn -0.3957 -0.4598 0.7950
vn -0.6582 -0.3460 0.6687
vn -0.7490 -0.2790 0.6009
vn -0.7117 -0.3451 0.6119
vn -0.6282 -0.4229 0.6532
vn -0.7659 -0.2559 0.5899
vn -0.7459 -0.2667 0.6104
vn -0.7315 -0.2770 0.6230
vn -0.7401 -0.2971 0.6033
vn -0.6834 -0.3061 0.6628
vn -0.5314 -0.3719 0.7611
vn -0.5361 -0.3158 0.7829
vn -0.6795 -0.2822 0.6772
vn -0.2108 -0.4364 0.8747
vn 0.2031 -0.4299 0.8797
vn 0.2181 -0.3651 0.9051
vn -0.2149 -0.3621 0.9070
vn 0.5204 -0.3580 0.7752
vn 0.6778 -0.2943 0.6737
vn 0.6858 -0.2956 0.6651
vn 0.5417 -0.3234 0.7759
vn 0.7454 -0.2653 0.6116
vn 0.7696 -0.2689 0.5791
vn 0.7491 -0.3255 0.5770
vn 0.7388 -0.2977 0.6046
vn 0.7558 -0.3009 0.5816
vn 0.6536 -0.3373 0.6775
vn 0.6330 -0.4309 0.6431
vn 0.7229 -0.3755 0.5800
vn 0.3761 -0.3074 0.8741
vn 0.3186 -0.2017 0.9262
vn 0.3074 -0.3761 0.8741
vn 0.4480 -0.4480 0.7737
vn -0.3460 -0.6582 0.6687
vn -0.4229 -0.6282 0.6532
vn -0.3451 -0.7117 0.6119
vn -0.2790 -0.7490 0.6009
vn -0.5484 -0.5484 0.6312
vn -0.6380 -0.4554 0.6209
vn -0.5444 -0.5444 0.6382
vn -0.4554 -0.6380 0.6209
vn -0.6825 -0.3722 0.6290
vn -0.6871 -0.3023 0.6607
vn -0.6086 -0.3354 0.7191
vn -0.5971 -0.4418 0.6695
vn -0.6429 -0.2472 0.7250
vn -0.5047 -0.2175 0.8354
vn -0.4288 -0.1512 0.8907
vn -0.5647 -0.2317 0.7921
vn -0.1994 -0.2217 0.9545
vn 0.2234 -0.2456 0.9433
vn 0.2017 -0.1639 0.9656
vn -0.1626 -0.1243 0.9788
vn 0.5439 -0.2708 0.7943
vn 0.6740 -0.3073 0.6718
vn 0.6265 -0.3294 0.7064
vn 0.5016 -0.2428 0.8303
vn 0.7108 -0.3582 0.6054
vn 0.7032 -0.4205 0.5733
vn 0.6366 -0.5005 0.5867
vn 0.6555 -0.4160 0.6303
vn 0.6597 -0.4929 0.5673
vn 0.5697 -0.5697 0.5924
vn 0.4929 -0.6597 0.5673
vn 0.5825 -0.5825 0.5669
vn 0.4309 -0.6330 0.6431
vn 0.3373 -0.6536 0.6775
vn 0.3009 -0.7558 0.5816
vn 0.3755 -0.7229 0.5800
vn -0.2559 -0.7659 0.5899
vn -0.2971 -0.7401 0.6033
vn -0.2770 -0.7315 0.6230
vn -0.2667 -0.7459 0.6104
vn -0.3722 -0.6825 0.6290
vn -0.4418 -0.5971 0.6695
vn -0.3354 -0.6086 0.7191
vn -0.3023 -0.6871 0.6607
vn -0.4889 -0.4889 0.7225
vn -0.4978 -0.3643 0.7870
vn -0.3637 -0.3637 0.8576
vn -0.3643 -0.4978 0.7870
vn -0.4515 -0.2364 0.8604
vn -0.3278 -0.1345 0.9351
vn -0.2197 -0.1165 0.9686
vn -0.3174 -0.2247 0.9213
vn -0.1191 -0.0971 0.9881
vn 0.1622 -0.1404 0.9767
vn 0.1189 -0.1186 0.9858
vn -0.0772 -0.0769 0.9940
vn 0.4211 -0.2403 0.8746
vn 0.5432 -0.3527 0.7619
vn 0.4350 -0.3515 0.8290
vn 0.3224 -0.2243 0.9196
vn 0.5740 -0.4589 0.6782
vn 0.5541 -0.5541 0.6213
vn 0.4589 -0.5740 0.6782
vn 0.4714 -0.4714 0.7453
vn 0.5005 -0.6366 0.5867
vn 0.4205 -0.7032 0.5733
vn 0.3582 -0.7108 0.6054
vn 0.4160 -0.6555 0.6303
vn 0.3255 -0.7491 0.5770
vn 0.2689 -0.7696 0.5791
vn 0.2653 -0.7454 0.6116
vn 0.2977 -0.7388 0.6046
vn -0.3061 -0.6834 0.6628
vn -0.2822 -0.6795 0.6772
vn -0.3158 -0.5361 0.7829
vn -0.3719 -0.5314 0.7611
vn -0.2472 -0.6429 0.7250
vn -0.2317 -0.5647 0.7921
vn -0.1512 -0.4288 0.8907
vn -0.2175 -0.5047 0.8354
vn -0.2364 -0.4515 0.8604
vn -0.2247 -0.3175 0.9213
vn -0.1165 -0.2197 0.9686
vn -0.1345 -0.3278 0.9351
vn -0.1843 -0.1843 0.9654
vn -0.1207 -0.0851 0.9890
vn -0.0851 -0.1207 0.9890
vn -0.0414 -0.0497 0.9979
vn 0.0772 -0.0855 0.9933
vn -0.0169 -0.0263 0.9995
vn 0.2175 -0.1830 0.9588
vn 0.3098 -0.3098 0.8989
vn 0.1830 -0.2175 0.9588
vn 0.1203 -0.1203 0.9854
vn 0.3515 -0.4350 0.8290
vn 0.3527 -0.5432 0.7619
vn 0.2403 -0.4211 0.8746
vn 0.2243 -0.3224 0.9196
vn 0.3294 -0.6265 0.7064
vn 0.3073 -0.6740 0.6718
vn 0.2708 -0.5439 0.7943
vn 0.2428 -0.5016 0.8303
vn 0.2956 -0.6858 0.6651
vn 0.2943 -0.6778 0.6737
vn 0.3580 -0.5204 0.7752
vn 0.3233 -0.5417 0.7759
vn -0.4364 -0.2108 0.8747
vn -0.3621 -0.2149 0.9070
vn -0.3621 0.2149 0.9070
vn -0.4364 0.2108 0.8747
vn -0.2217 -0.1994 0.9545
vn -0.1243 -0.1626 0.9788
vn -0.1243 0.1626 0.9788
vn -0.2217 0.1994 0.9545
vn -0.0971 -0.1191 0.9881
vn -0.0769 -0.0772 0.9940
vn -0.0769 0.0772 0.9940
vn -0.0971 0.1191 0.9881
vn -0.0497 -0.0414 0.9979
vn -0.0263 -0.0169 0.9995
vn -0.0263 0.0169 0.9995
vn -0.0497 0.0414 0.9979
vn -0.0084 -0.0084 0.9999
vn 0.0169 -0.0169 0.9997
vn 0.0169 0.0169 0.9997
vn -0.0084 0.0084 0.9999
vn 0.0855 -0.0772 0.9933
vn 0.0855 0.0772 0.9933
vn 0.1186 -0.1189 0.9858
vn 0.1404 -0.1622 0.9767
vn 0.1404 0.1622 0.9767
vn 0.1186 0.1189 0.9858
vn 0.1639 -0.2017 0.9656
vn 0.2456 -0.2235 0.9433
vn 0.2456 0.2235 0.9433
vn 0.1639 0.2017 0.9656
vn 0.3651 -0.2181 0.9051
vn 0.4299 -0.2031 0.8797
vn 0.4299 0.2031 0.8797
vn 0.3651 0.2181 0.9051
vn -0.3719 0.5314 0.7611
vn -0.3158 0.5361 0.7829
vn -0.2822 0.6795 0.6772
vn -0.3061 0.6834 0.6628
vn -0.2175 0.5047 0.8354
vn -0.1512 0.4288 0.8907
vn -0.2317 0.5647 0.7921
vn -0.2472 0.6429 0.7250
vn -0.1345 0.3278 0.9351
vn -0.1165 0.2197 0.9686
vn -0.2247 0.3175 0.9213
vn -0.2364 0.4515 0.8604
vn -0.0851 0.1207 0.9890
vn -0.1207 0.0851 0.9890
vn -0.1843 0.1843 0.9654
vn -0.0169 0.0263 0.9995
vn 0.0772 0.0855 0.9933
vn -0.0414 0.0497 0.9979
vn 0.1203 0.1203 0.9854
vn 0.1830 0.2175 0.9588
vn 0.3098 0.3098 0.8989
vn 0.2175 0.1830 0.9588
vn 0.2243 0.3224 0.9196
vn 0.2403 0.4211 0.8746
vn 0.3527 0.5432 0.7619
vn 0.3515 0.4350 0.8290
vn 0.2428 0.5016 0.8303
vn 0.2708 0.5439 0.7943
vn 0.3073 0.6740 0.6718
vn 0.3294 0.6265 0.7064
vn 0.3233 0.5417 0.7759
vn 0.3580 0.5204 0.7752
vn 0.2943 0.6778 0.6737
vn 0.2956 0.6858 0.6651
vn -0.2666 0.7459 0.6104
vn -0.2770 0.7315 0.6230
vn -0.2971 0.7401 0.6033
vn -0.2559 0.7659 0.5899
vn -0.3023 0.6871 0.6607
vn -0.3354 0.6086 0.7191
vn -0.4418 0.5971 0.6695
vn -0.3722 0.6824 0.6290
vn -0.3643 0.4978 0.7870
vn -0.3637 0.3637 0.8576
vn -0.4978 0.3643 0.7870
vn -0.4889 0.4889 0.7225
vn -0.3175 0.2247 0.9213
vn -0.2197 0.1165 0.9686
vn -0.3278 0.1345 0.9351
vn -0.4515 0.2364 0.8604
vn -0.0772 0.0769 0.9940
vn 0.1189 0.1186 0.9858
vn 0.1622 0.1404 0.9767
vn -0.1191 0.0971 0.9881
vn 0.3224 0.2243 0.9196
vn 0.4350 0.3515 0.8290
vn 0.5432 0.3527 0.7619
vn 0.4211 0.2403 0.8746
vn 0.4714 0.4714 0.7453
vn 0.4589 0.5740 0.6782
vn 0.5541 0.5541 0.6213
vn 0.5740 0.4589 0.6782
vn 0.4160 0.6555 0.6303
vn 0.3582 0.7108 0.6054
vn 0.4205 0.7032 0.5733
vn 0.5005 0.6366 0.5868
vn 0.2977 0.7388 0.6046
vn 0.2653 0.7454 0.6116
vn 0.2689 0.7696 0.5791
vn 0.3255 0.7491 0.5770
vn -0.2790 0.7490 0.6009
vn -0.3451 0.7117 0.6119
vn -0.4229 0.6282 0.6532
vn -0.3460 0.6582 0.6687
vn -0.4554 0.6380 0.6209
vn -0.5444 0.5444 0.6382
vn -0.6380 0.4554 0.6209
vn -0.5484 0.5484 0.6312
vn -0.5971 0.4418 0.6695
vn -0.6086 0.3354 0.7191
vn -0.6871 0.3023 0.6607
vn -0.6825 0.3722 0.6290
vn -0.5647 0.2317 0.7921
vn -0.4288 0.1512 0.8907
vn -0.5047 0.2175 0.8354
vn -0.6429 0.2472 0.7250
vn -0.1626 0.1243 0.9788
vn 0.2017 0.1639 0.9656
vn 0.2234 0.2456 0.9433
vn -0.1994 0.2217 0.9545
vn 0.5016 0.2428 0.8303
vn 0.6265 0.3294 0.7064
vn 0.6740 0.3073 0.6718
vn 0.5439 0.2708 0.7943
vn 0.6555 0.4160 0.6303
vn 0.6366 0.5005 0.5867
vn 0.7032 0.4205 0.5733
vn 0.7108 0.3582 0.6054
vn 0.5825 0.5825 0.5669
vn 0.4929 0.6597 0.5673
vn 0.5697 0.5697 0.5924
vn 0.6597 0.4929 0.5673
vn 0.3755 0.7229 0.5800
vn 0.3009 0.7558 0.5816
vn 0.3373 0.6536 0.6775
vn 0.4309 0.6330 0.6431
vn -0.3957 0.4598 0.7950
vn -0.4863 0.4863 0.7259
vn -0.4598 0.3957 0.7950
vn -0.2017 0.3186 0.9262
vn -0.6282 0.4229 0.6532
vn -0.7117 0.3451 0.6119
vn -0.7490 0.2790 0.6009
vn -0.6582 0.3460 0.6687
vn -0.7401 0.2971 0.6033
vn -0.7315 0.2770 0.6230
vn -0.7459 0.2666 0.6104
vn -0.7659 0.2559 0.5899
vn -0.6795 0.2822 0.6772
vn -0.5361 0.3158 0.7829
vn -0.5314 0.3719 0.7611
vn -0.6834 0.3061 0.6628
vn -0.2149 0.3621 0.9070
vn 0.2181 0.3651 0.9051
vn 0.2031 0.4299 0.8797
vn -0.2108 0.4364 0.8747
vn 0.5417 0.3233 0.7759
vn 0.6858 0.2956 0.6651
vn 0.6778 0.2943 0.6737
vn 0.5204 0.3580 0.7752
vn 0.7388 0.2977 0.6046
vn 0.7491 0.3254 0.5770
vn 0.7696 0.2689 0.5791
vn 0.7454 0.2653 0.6116
vn 0.7229 0.3755 0.5800
vn 0.6330 0.4309 0.6431
vn 0.6536 0.3373 0.6775
vn 0.7558 0.3009 0.5816
vn 0.4480 0.4480 0.7737
vn 0.3074 0.3761 0.8741
vn 0.3186 0.2017 0.9262
vn 0.3761 0.3074 0.8741
usemtl Default_OBJ.004
s 1
f 1//1 2//1 3//1
f 4//2 2//2 5//2
f 6//3 7//3 2//3
f 2//4 8//4 3//4
f 9//5 6//5 4//5
f 10//6 11//6 9//6
f 12//7 13//7 11//7
f 11//8 14//9 6//10
f 15//11 12//11 10//11
f 16//12 17//12 15//12
f 18//13 19//14 17//14
f 17//15 20//15 12//15
f 21//16 18//16 16//16
f 22//17 23//17 21//17
f 24//18 25//19 23//20
f 23//21 26//22 18//23
f 27//24 24//24 22//24
f 27//25 28//26 29//27
f 29//28 30//29 31//30
f 29//31 32//32 24//33
f 33//34 34//34 28//34
f 35//35 36//36 34//37
f 34//38 37//38 38//38
f 28//39 38//40 30//41
f 39//42 40//43 36//44
f 41//45 42//45 40//45
f 40//46 43//47 44//46
f 36//48 44//48 37//48
f 45//49 46//49 42//49
f 47//50 48//51 46//52
f 46//53 49//54 50//55
f 42//56 50//56 43//56
f 51//57 52//57 48//57
f 53//58 52//58 54//58
f 52//59 55//59 56//59
f 48//60 56//60 49//60
f 7//61 57//62 8//63
f 14//64 58//65 7//66
f 59//67 60//67 58//67
f 58//68 61//68 57//68
f 13//69 59//69 14//69
f 20//70 62//70 13//70
f 63//71 64//71 62//71
f 62//72 65//72 59//72
f 19//73 63//73 20//73
f 26//74 66//74 19//74
f 67//75 68//75 66//75
f 66//76 69//76 63//76
f 25//77 67//77 26//77
f 32//78 70//78 25//78
f 71//79 72//79 70//79
f 70//80 73//80 67//80
f 31//81 71//81 32//81
f 31//82 74//82 75//82
f 75//83 76//83 77//83
f 75//84 78//84 71//84
f 30//85 79//85 74//85
f 38//86 80//86 79//86
f 79//87 81//87 82//87
f 74//88 82//88 76//88
f 37//89 83//89 80//89
f 44//90 84//90 83//90
f 83//91 85//91 86//91
f 80//92 86//92 81//92
f 43//93 87//93 84//93
f 50//94 88//94 87//94
f 87//95 89//95 90//95
f 84//96 90//96 85//96
f 49//97 91//98 88//99
f 56//100 92//100 91//100
f 91//101 93//101 94//101
f 88//102 94//102 89//102
f 60//103 95//103 61//103
f 65//104 96//104 60//104
f 97//105 98//106 96//105
f 96//107 99//108 95//109
f 64//110 97//110 65//110
f 69//111 100//111 64//111
f 101//112 102//112 100//112
f 100//113 103//113 97//113
f 68//114 101//114 69//114
f 73//115 104//115 68//115
f 105//116 106//116 104//116
f 104//117 107//117 101//117
f 72//118 105//118 73//118
f 78//119 108//119 72//119
f 109//120 110//121 108//122
f 108//123 111//123 105//123
f 77//124 109//124 78//124
f 77//125 112//125 113//125
f 113//126 114//127 115//128
f 113//129 116//129 109//129
f 76//130 117//130 112//130
f 82//131 118//131 117//131
f 117//132 119//133 120//134
f 112//135 120//135 114//135
f 81//136 121//136 118//136
f 86//137 122//137 121//137
f 121//138 123//138 124//138
f 118//139 124//139 119//139
f 85//140 125//140 122//140
f 90//141 126//141 125//141
f 125//142 127//142 128//142
f 122//143 128//143 123//143
f 89//144 129//145 126//145
f 94//146 130//146 129//146
f 129//147 131//147 132//147
f 126//148 132//148 127//148
f 98//149 133//149 99//149
f 103//150 134//151 98//152
f 135//153 136//154 134//155
f 134//156 137//156 133//156
f 102//157 135//157 103//157
f 107//158 138//158 102//158
f 139//159 140//159 138//159
f 138//160 141//160 135//160
f 106//161 139//161 107//161
f 111//162 142//162 106//162
f 143//163 144//164 142//165
f 142//166 145//166 139//166
f 110//167 143//167 111//167
f 116//168 146//168 110//168
f 147//169 148//169 146//169
f 146//170 149//170 143//170
f 115//171 147//172 116//173
f 115//174 150//175 151//176
f 151//177 152//177 153//177
f 151//178 154//179 147//180
f 114//181 155//181 150//181
f 120//182 156//182 155//182
f 155//183 157//183 158//183
f 150//175 158//184 152//185
f 119//186 159//187 156//188
f 124//189 160//189 159//189
f 159//190 161//190 162//190
f 156//191 162//191 157//191
f 123//192 163//192 160//192
f 128//193 164//193 163//193
f 163//194 165//194 166//194
f 160//195 166//195 161//195
f 127//196 167//196 164//196
f 132//197 168//198 167//199
f 167//200 169//200 170//200
f 164//201 170//202 165//203
f 136//204 171//205 137//206
f 141//207 172//208 136//209
f 172//210 173//211 174//212
f 171//213 174//213 175//213
f 140//214 176//214 141//214
f 145//215 177//215 140//215
f 177//216 178//216 179//216
f 176//217 179//217 173//217
f 144//218 180//218 145//218
f 149//219 181//219 144//219
f 181//220 182//220 183//220
f 180//221 183//221 178//221
f 148//222 184//223 149//224
f 154//179 185//225 148//226
f 185//227 186//228 187//229
f 184//230 187//231 182//232
f 153//233 188//234 154//235
f 153//236 189//236 190//236
f 189//237 191//237 190//237
f 188//238 191//239 186//240
f 152//241 192//242 189//243
f 158//184 193//244 192//245
f 193//246 194//247 192//248
f 192//249 195//249 189//249
f 157//250 196//251 193//252
f 162//253 197//253 196//253
f 197//254 198//254 196//254
f 196//255 199//256 193//257
f 161//258 200//258 197//258
f 166//259 201//259 200//259
f 201//260 202//260 200//260
f 200//261 203//261 197//261
f 165//262 204//263 201//264
f 170//265 205//265 204//265
f 205//266 206//267 204//268
f 204//269 207//270 201//271
f 175//272 208//272 209//272
f 174//273 210//274 208//275
f 208//276 211//277 212//278
f 209//279 212//279 213//279
f 173//280 214//280 210//280
f 179//281 215//281 214//281
f 214//282 216//282 217//282
f 210//283 217//283 211//283
f 178//284 218//284 215//284
f 183//285 219//286 218//287
f 218//288 220//288 221//288
f 215//289 221//289 216//289
f 182//290 222//290 219//290
f 187//291 223//291 222//291
f 222//292 224//292 225//292
f 219//293 225//293 220//293
f 186//228 226//294 223//295
f 195//296 226//297 191//298
f 227//299 228//300 226//301
f 223//302 228//303 224//304
f 194//247 227//299 195//305
f 199//306 229//306 194//306
f 230//307 231//307 229//307
f 229//308 232//308 227//308
f 198//309 230//309 199//309
f 203//310 233//310 198//310
f 234//311 235//311 233//311
f 233//312 236//313 230//314
f 202//315 234//315 203//315
f 207//316 237//316 202//316
f 238//317 239//317 237//317
f 237//318 240//318 234//318
f 206//319 238//320 207//321
f 241//322 242//322 206//322
f 243//323 244//324 242//325
f 242//326 245//326 238//326
f 213//327 246//327 247//327
f 212//328 248//329 246//329
f 246//330 249//330 250//330
f 247//331 250//331 251//331
f 211//332 252//332 248//332
f 217//333 253//333 252//333
f 252//334 254//334 255//334
f 248//335 255//335 249//335
f 216//336 256//336 253//336
f 221//337 257//337 256//337
f 256//338 258//338 259//338
f 253//339 259//339 254//339
f 220//340 260//340 257//340
f 225//341 261//342 260//343
f 260//344 262//344 263//344
f 257//345 263//345 258//345
f 224//346 264//346 261//346
f 232//347 264//348 228//349
f 265//350 266//350 264//350
f 261//351 266//351 262//351
f 231//352 265//352 232//352
f 236//353 267//354 231//355
f 268//356 269//356 267//356
f 267//357 270//357 265//357
f 235//358 268//358 236//358
f 240//359 271//359 235//359
f 272//360 273//360 271//360
f 271//361 274//361 268//361
f 239//362 272//362 240//362
f 245//363 275//363 239//363
f 276//364 277//364 275//364
f 275//365 278//365 272//365
f 244//366 276//366 245//366
f 279//367 280//368 244//369
f 281//370 282//370 280//370
f 280//371 283//372 276//371
f 251//373 284//373 285//373
f 250//374 286//374 284//374
f 284//375 287//376 288//377
f 285//378 288//378 289//378
f 249//379 290//379 286//379
f 255//380 291//380 290//380
f 290//381 292//381 293//381
f 286//382 293//382 287//382
f 254//383 294//383 291//383
f 259//384 295//384 294//384
f 294//385 296//385 297//385
f 291//386 297//386 292//386
f 258//387 298//387 295//387
f 263//388 299//388 298//388
f 298//389 300//389 301//389
f 295//390 301//390 296//390
f 262//391 302//391 299//391
f 270//392 302//392 266//392
f 303//393 304//393 302//393
f 299//394 304//394 300//394
f 269//395 303//395 270//395
f 274//396 305//396 269//396
f 306//397 307//397 305//397
f 305//398 308//398 303//398
f 273//399 306//399 274//399
f 278//400 309//400 273//400
f 310//401 311//401 309//401
f 309//402 312//402 306//402
f 277//403 310//403 278//403
f 283//404 313//404 277//404
f 314//405 315//405 313//405
f 313//406 316//406 310//406
f 282//407 314//407 283//407
f 317//408 318//408 282//408
f 319//409 320//410 318//411
f 318//412 321//413 314//414
f 289//415 322//415 323//415
f 288//416 324//416 322//416
f 322//417 325//417 326//417
f 322//418 327//418 323//418
f 287//419 328//420 324//421
f 293//422 329//422 328//422
f 328//423 330//423 331//423
f 324//424 331//425 325//426
f 292//427 332//427 329//427
f 297//428 333//429 332//428
f 332//430 334//431 335//432
f 329//433 335//433 330//433
f 296//434 336//435 333//436
f 301//437 337//438 336//439
f 336//440 338//440 339//440
f 333//441 339//441 334//441
f 300//442 340//443 337//444
f 308//445 340//446 304//447
f 341//448 342//448 340//448
f 337//449 342//450 338//451
f 307//452 341//453 308//454
f 312//455 343//455 307//455
f 344//456 345//457 343//458
f 343//459 346//459 341//459
f 311//460 344//460 312//460
f 316//461 347//462 311//462
f 348//463 349//463 347//463
f 347//464 350//464 344//464
f 315//465 348//465 316//465
f 321//466 351//467 315//468
f 352//469 353//469 351//469
f 351//470 354//470 348//470
f 320//471 352//471 321//471
f 355//472 356//472 320//472
f 356//473 357//473 358//473
f 356//474 359//474 352//474
f 1//475 5//475 2//475
f 4//476 6//476 2//476
f 6//477 14//477 7//477
f 2//478 7//478 8//478
f 9//479 11//479 6//479
f 10//480 12//480 11//480
f 12//481 20//481 13//481
f 11//8 13//482 14//9
f 15//483 17//483 12//483
f 16//484 18//484 17//484
f 18//485 26//485 19//485
f 17//14 19//14 20//486
f 21//487 23//21 18//23
f 22//488 24//488 23//488
f 24//18 32//489 25//19
f 23//490 25//490 26//490
f 27//491 29//491 24//491
f 27//25 33//492 28//26
f 29//28 28//493 30//29
f 29//31 31//494 32//32
f 33//495 35//495 34//495
f 35//496 39//496 36//496
f 34//37 36//36 37//497
f 28//39 34//498 38//40
f 39//42 41//499 40//43
f 41//500 45//500 42//500
f 40//501 42//501 43//501
f 36//502 40//46 44//46
f 45//503 47//503 46//503
f 47//50 51//504 48//51
f 46//53 48//505 49//54
f 42//506 46//506 50//506
f 51//507 54//507 52//507
f 53//508 360//508 52//508
f 52//509 360//509 55//509
f 48//510 52//510 56//510
f 7//61 58//511 57//62
f 14//64 59//512 58//65
f 59//513 65//513 60//513
f 58//514 60//514 61//514
f 13//515 62//515 59//515
f 20//516 63//516 62//516
f 63//517 69//517 64//517
f 62//518 64//518 65//518
f 19//519 66//519 63//519
f 26//520 67//520 66//520
f 67//521 73//521 68//521
f 66//522 68//522 69//522
f 25//523 70//523 67//523
f 32//524 71//524 70//524
f 71//525 78//525 72//525
f 70//526 72//526 73//526
f 31//527 75//527 71//527
f 31//528 30//528 74//528
f 75//529 74//529 76//529
f 75//530 77//530 78//530
f 30//531 38//531 79//531
f 38//532 37//532 80//532
f 79//533 80//533 81//533
f 74//534 79//534 82//534
f 37//535 44//535 83//535
f 44//536 43//536 84//536
f 83//537 84//537 85//537
f 80//538 83//538 86//538
f 43//539 50//539 87//539
f 50//540 49//540 88//540
f 87//541 88//541 89//541
f 84//542 87//542 90//542
f 49//97 56//543 91//98
f 56//544 55//544 92//544
f 91//545 92//545 93//545
f 88//546 91//546 94//546
f 60//547 96//547 95//547
f 65//548 97//105 96//105
f 97//549 103//549 98//549
f 96//107 98//550 99//108
f 64//551 100//551 97//551
f 69//552 101//552 100//552
f 101//553 107//553 102//553
f 100//554 102//554 103//554
f 68//555 104//555 101//555
f 73//556 105//556 104//556
f 105//557 111//557 106//557
f 104//558 106//558 107//558
f 72//559 108//559 105//559
f 78//560 109//560 108//560
f 109//561 116//561 110//561
f 108//122 110//121 111//562
f 77//563 113//563 109//563
f 77//564 76//564 112//564
f 113//565 112//565 114//565
f 113//566 115//171 116//173
f 76//567 82//567 117//567
f 82//568 81//568 118//568
f 117//569 118//569 119//569
f 112//570 117//132 120//134
f 81//571 86//571 121//571
f 86//572 85//572 122//572
f 121//573 122//573 123//573
f 118//574 121//574 124//574
f 85//575 90//575 125//575
f 90//576 89//576 126//576
f 125//577 126//577 127//577
f 122//578 125//578 128//578
f 89//579 94//579 129//579
f 94//580 93//580 130//580
f 129//581 130//581 131//581
f 126//145 129//145 132//582
f 98//152 134//151 133//583
f 103//584 135//584 134//584
f 135//153 141//585 136//154
f 134//586 136//586 137//586
f 102//587 138//587 135//587
f 107//588 139//588 138//588
f 139//589 145//589 140//589
f 138//590 140//590 141//590
f 106//591 142//591 139//591
f 111//592 143//163 142//165
f 143//593 149//593 144//593
f 142//594 144//594 145//594
f 110//595 146//595 143//595
f 116//596 147//596 146//596
f 147//180 154//179 148//226
f 146//597 148//597 149//597
f 115//598 151//178 147//180
f 115//128 114//127 150//599
f 151//176 150//175 152//185
f 151//600 153//233 154//235
f 114//601 120//601 155//601
f 120//602 119//602 156//602
f 155//603 156//603 157//603
f 150//604 155//604 158//604
f 119//605 124//605 159//605
f 124//606 123//606 160//606
f 159//607 160//607 161//607
f 156//188 159//187 162//608
f 123//609 128//609 163//609
f 128//610 127//610 164//610
f 163//611 164//611 165//611
f 160//612 163//612 166//612
f 127//613 132//197 167//199
f 132//614 131//614 168//614
f 167//615 168//615 169//615
f 164//201 167//616 170//202
f 136//204 172//617 171//205
f 141//207 176//618 172//208
f 172//210 176//619 173//211
f 171//620 172//620 174//620
f 140//621 177//621 176//621
f 145//622 180//622 177//622
f 177//623 180//623 178//623
f 176//624 177//624 179//624
f 144//625 181//625 180//625
f 149//224 184//223 181//626
f 181//627 184//230 182//232
f 180//628 181//628 183//628
f 148//226 185//225 184//629
f 154//630 188//630 185//630
f 185//631 188//238 186//240
f 184//632 185//227 187//229
f 153//633 190//633 188//633
f 153//634 152//241 189//243
f 189//635 195//296 191//298
f 188//636 190//636 191//636
f 152//185 158//184 192//245
f 158//637 157//250 193//252
f 193//257 199//256 194//638
f 192//248 194//247 195//305
f 157//639 162//639 196//639
f 162//640 161//640 197//640
f 197//641 203//641 198//641
f 196//642 198//642 199//642
f 161//643 166//643 200//643
f 166//644 165//644 201//644
f 201//645 207//645 202//645
f 200//646 202//646 203//646
f 165//262 170//647 204//263
f 170//648 169//648 205//648
f 205//266 241//649 206//267
f 204//269 206//650 207//270
f 175//651 174//651 208//651
f 174//273 173//652 210//274
f 208//653 210//653 211//653
f 209//654 208//276 212//278
f 173//655 179//655 214//655
f 179//656 178//656 215//656
f 214//657 215//657 216//657
f 210//658 214//658 217//658
f 178//659 183//659 218//659
f 183//660 182//660 219//660
f 218//287 219//286 220//661
f 215//662 218//662 221//662
f 182//663 187//663 222//663
f 187//229 186//228 223//295
f 222//664 223//664 224//664
f 219//665 222//665 225//665
f 186//666 191//666 226//666
f 195//305 227//299 226//301
f 227//667 232//347 228//349
f 223//295 226//294 228//668
f 194//669 229//669 227//669
f 199//670 230//670 229//670
f 230//671 236//671 231//671
f 229//672 231//672 232//672
f 198//673 233//312 230//314
f 203//674 234//674 233//674
f 234//675 240//675 235//675
f 233//676 235//676 236//676
f 202//677 237//677 234//677
f 207//678 238//678 237//678
f 238//679 245//679 239//679
f 237//680 239//680 240//680
f 206//319 242//681 238//320
f 241//682 243//682 242//682
f 243//683 279//683 244//683
f 242//325 244//324 245//684
f 213//685 212//685 246//685
f 212//686 211//686 248//686
f 246//329 248//329 249//687
f 247//688 246//688 250//688
f 211//689 217//689 252//689
f 217//690 216//690 253//690
f 252//691 253//691 254//691
f 248//692 252//692 255//692
f 216//693 221//693 256//693
f 221//694 220//694 257//694
f 256//695 257//695 258//695
f 253//696 256//696 259//696
f 220//697 225//341 260//343
f 225//698 224//698 261//698
f 260//699 261//699 262//699
f 257//700 260//700 263//700
f 224//304 228//303 264//701
f 232//702 265//702 264//702
f 265//703 270//703 266//703
f 261//704 264//704 266//704
f 231//355 267//354 265//705
f 236//706 268//706 267//706
f 268//707 274//707 269//707
f 267//708 269//708 270//708
f 235//709 271//709 268//709
f 240//710 272//710 271//710
f 272//711 278//711 273//711
f 271//712 273//712 274//712
f 239//713 275//713 272//713
f 245//714 276//714 275//714
f 276//715 283//715 277//715
f 275//716 277//716 278//716
f 244//717 280//371 276//371
f 279//367 281//718 280//368
f 281//719 317//719 282//719
f 280//720 282//720 283//720
f 251//721 250//721 284//721
f 250//722 249//722 286//722
f 284//375 286//723 287//376
f 285//724 284//724 288//724
f 249//725 255//725 290//725
f 255//726 254//726 291//726
f 290//727 291//727 292//727
f 286//728 290//728 293//728
f 254//729 259//729 294//729
f 259//730 258//730 295//730
f 294//731 295//731 296//731
f 291//732 294//732 297//732
f 258//733 263//733 298//733
f 263//734 262//734 299//734
f 298//735 299//735 300//735
f 295//736 298//736 301//736
f 262//737 266//737 302//737
f 270//738 303//738 302//738
f 303//739 308//739 304//739
f 299//740 302//740 304//740
f 269//741 305//741 303//741
f 274//742 306//742 305//742
f 306//743 312//743 307//743
f 305//744 307//744 308//744
f 273//745 309//745 306//745
f 278//746 310//746 309//746
f 310//747 316//747 311//747
f 309//748 311//748 312//748
f 277//749 313//749 310//749
f 283//750 314//750 313//750
f 314//751 321//751 315//751
f 313//752 315//752 316//752
f 282//753 318//753 314//753
f 317//754 319//754 318//754
f 319//409 355//755 320//410
f 318//412 320//756 321//413
f 289//757 288//757 322//757
f 288//758 287//758 324//758
f 322//759 324//759 325//759
f 322//760 326//760 327//760
f 287//419 293//761 328//420
f 293//762 292//762 329//762
f 328//763 329//763 330//763
f 324//424 328//764 331//425
f 292//765 297//428 332//428
f 297//766 296//766 333//766
f 332//430 333//767 334//431
f 329//768 332//768 335//768
f 296//769 301//769 336//769
f 301//437 300//770 337//438
f 336//771 337//771 338//771
f 333//436 336//435 339//772
f 300//442 304//773 340//443
f 308//445 341//774 340//446
f 341//775 346//775 342//775
f 337//449 340//776 342//450
f 307//452 343//777 341//453
f 312//778 344//456 343//458
f 344//779 350//779 345//779
f 343//780 345//780 346//780
f 311//462 347//462 344//781
f 316//782 348//782 347//782
f 348//783 354//783 349//783
f 347//784 349//784 350//784
f 315//785 351//785 348//785
f 321//466 352//786 351//467
f 352//787 359//787 353//787
f 351//788 353//788 354//788
f 320//789 356//789 352//789
f 355//790 361//790 356//790
f 356//791 361//791 357//791
f 356//792 358//792 359//792
